<svg width="4574" height="3245" viewBox="0 0 4574 3245" fill="none" xmlns="http://www.w3.org/2000/svg">
<path d="M2060.45 2333.67L2092.87 2374.31C2098.19 2381.05 2103.31 2387.88 2108.09 2395.03C2112.87 2402.24 2117.24 2409.56 2120.2 2418.96C2125.11 2410.23 2125.68 2399.35 2124.75 2389.43C2123.71 2379.39 2120.97 2369.75 2117.47 2360.65C2110.32 2342.47 2100.16 2326.21 2088.52 2311.48C2076.88 2296.76 2063.65 2283.55 2049.13 2271.83C2034.53 2260.24 2018.83 2249.85 2000.44 2242.87C2008.63 2260.64 2018.47 2276.05 2028.65 2290.97C2038.89 2305.8 2049.6 2319.91 2060.45 2333.67ZM3351.2 2203.89C3370.68 2191.27 3390.04 2178.49 3409.21 2165.4C3381.11 2178.32 3353.37 2191.87 3325.73 2205.63L3351.2 2203.89ZM2189.65 2042.28C2191.47 2042.28 2193.24 2042.23 2194.96 2042.09L2193.35 2021.03C2155.37 2023.88 2086.29 1983.59 2070.25 1939.85L2050.4 1947.16C2069.19 1998.29 2142.63 2042.28 2189.65 2042.28ZM2407.68 2409.73C2405.27 2405.72 2402.2 2401.73 2398.01 2398.69C2393.27 2395.15 2387.57 2392.97 2382.15 2392.09C2371.15 2390.4 2361.51 2392.56 2352.83 2395.28C2344.08 2398.12 2336.12 2401.87 2328.56 2406.11C2320.92 2410.43 2314.01 2414.87 2306.71 2420.41L2306.45 2420.59L2305.8 2421.23C2279.27 2446.19 2252.89 2471.25 2226.65 2496.49L2426.49 2479.56C2423.75 2457.75 2419.12 2436.29 2410.08 2415.35L2407.68 2409.73ZM3285.71 1060.07C3316.95 1049.63 3348.33 1039.91 3380.04 1031.55C3395.96 1027.59 3411.89 1023.71 3428.05 1021.08C3444.24 1018.35 3460.56 1016.57 3477.32 1017.23C3461.32 1011.93 3444.11 1010.57 3427.2 1010.51C3410.23 1010.65 3393.29 1012.11 3376.61 1014.75C3343.21 1019.73 3310.61 1028.44 3278.69 1038.6C3246.68 1048.64 3215.56 1061.12 3185.11 1074.91C3154.71 1088.85 3125 1104.31 3096.96 1122.89C3129.19 1113.45 3160.63 1102.85 3191.99 1092.11L3285.71 1060.07ZM3006.31 1417.27C3058.2 1395.88 3109.99 1374.19 3160.49 1349.43C3211.01 1324.71 3260.8 1298.21 3308.27 1266.12C3252.04 1277.07 3198.12 1293.61 3144.93 1311.93C3091.75 1330.23 3039.83 1351.59 2988.01 1373.25C2936.25 1395 2884.91 1417.67 2834 1441.49C2783.25 1465.68 2732.67 1490.27 2683.4 1517.96C2683.4 1517.96 2796.25 1497.01 2849.23 1478.13C2902.03 1458.95 2954.36 1438.56 3006.31 1417.27ZM2848.48 1564.27C2848.48 1564.27 2841.23 1565.63 2840.07 1567.69L2697.8 1625.35L2832.37 1581.29C2824.39 1595.37 2816.36 1609.24 2809.07 1621.6L2965.2 1613.37L2996.56 1523.19L2996.59 1523.16L3003.27 1501.55L2982.95 1509.77L2848.48 1564.27ZM3422.11 1049.04C3413.92 1049.96 3405.87 1051.39 3397.81 1052.8C3381.69 1055.55 3365.8 1059.25 3349.97 1063.35C3318.37 1071.84 3287.4 1081.59 3256.64 1096.65C3248.84 1100.6 3241.31 1104.64 3232.89 1111.44C3230.76 1113.25 3228.57 1115.23 3226.11 1118.28C3223.97 1121.28 3220.25 1125.53 3219.92 1134.8C3219.84 1139.35 3221.61 1144.44 3223.95 1147.67C3226.27 1151 3228.68 1152.91 3230.73 1154.36C3234.87 1157.09 3238.03 1158.15 3240.89 1159.09C3246.45 1160.88 3251.68 1161.48 3255.36 1161.92L3267.87 1163.33C3276.23 1164 3284.57 1164.55 3292.93 1164.52C3309.67 1164.61 3326.45 1163.31 3342.93 1160.16C3359.31 1156.93 3375.72 1152.33 3390.43 1144.03C3357.27 1142.08 3326.31 1138.23 3295.39 1133.39C3287.69 1132.11 3280.03 1130.91 3272.36 1129.45L3270.39 1129.11C3271.27 1128.61 3272.12 1128.11 3272.96 1127.63C3299.64 1113.2 3329.32 1100.45 3358.39 1087.28C3373 1080.68 3387.73 1074.21 3402.36 1067.33C3417.16 1060.95 3431.59 1053.21 3446.79 1047.77C3438.45 1046.81 3430.24 1048.17 3422.11 1049.04ZM3116.01 1873.13C3120.97 1886.23 3124.2 1901.04 3126.67 1915.93C3131.24 1945.88 3132.39 1977.04 3129.6 2007.23C3128.92 2015 3127.93 2022.73 3126.59 2030.31L3160.99 2028.19C3162.05 2022.43 3163.01 2016.67 3163.75 2010.92C3167.61 1977.33 3167.07 1943.85 3162.03 1910.43C3159.48 1893.67 3155.75 1876.99 3149.12 1860.15C3141.89 1843.31 3133.71 1829.61 3125.05 1815.55C3107.77 1787.83 3088.91 1761.6 3069.05 1736.13C3049.11 1710.73 3028.19 1686.09 3005.37 1662.91C3033.51 1721.37 3066.07 1776.76 3096.11 1832.28C3103.31 1846.05 3111.05 1860.32 3116.01 1873.13ZM3112.56 791.734C3047.96 783.774 2983.31 776.561 2918.53 770.454L2918.48 770.947C2983.05 778.76 3047.49 787.68 3111.8 797.334C3176.11 807.04 3240.27 817.56 3304.16 829.4C3320.75 832.48 3337.32 835.667 3353.87 838.947L3406.85 836.067C3373.31 829.8 3339.65 824.107 3305.99 818.747C3241.67 808.574 3177.15 799.734 3112.56 791.734ZM1814.93 1304.29C1821.95 1299.61 1829.33 1293.29 1831.39 1284.91C1824.99 1290.16 1817.75 1292.07 1810.41 1293.59C1803.04 1295.04 1795.57 1295.89 1788.01 1296.49C1772.89 1297.76 1757.59 1298.27 1742.19 1298.81C1726.83 1299.32 1711.36 1299.83 1695.77 1300.75L1672.28 1302.28C1664.33 1302.95 1656.56 1303.6 1648.25 1303.69C1654.95 1309.05 1662.99 1311.77 1670.75 1314.57C1678.57 1317.13 1686.57 1318.97 1694.6 1320.37C1710.64 1323.16 1726.95 1324.03 1743.24 1323.21C1759.51 1322.4 1775.88 1320.04 1791.84 1314.93C1799.79 1312.29 1807.68 1309 1814.93 1304.29ZM1811.12 1372.21C1819.51 1363.91 1826.79 1355.07 1833.15 1345.49C1839.49 1335.79 1845.11 1325.89 1850.17 1313.08C1836.29 1313.93 1824.57 1319.73 1814.29 1326.4C1804.05 1333.21 1795.45 1341.47 1787.79 1350.11C1780.09 1358.76 1773.11 1367.64 1766.6 1376.96C1759.96 1386.32 1753.72 1395.76 1746.88 1406.99C1760.11 1406.33 1772.21 1401.16 1782.84 1394.81C1793.55 1388.43 1802.8 1380.49 1811.12 1372.21ZM1897.44 1267.72C1904.89 1267.52 1912.56 1266.44 1919.44 1263.77C1905.05 1261.16 1892.71 1254.96 1880.11 1248.93C1867.6 1242.81 1855.21 1236.27 1842.71 1229.77C1817.64 1216.83 1792.01 1204.27 1765 1193.6C1751.51 1188.32 1737.71 1183.47 1723.47 1179.39C1709.23 1175.35 1694.45 1172.16 1679.2 1171.15C1664 1170.08 1648.25 1170.81 1632.95 1174.63C1617.77 1178.43 1602.72 1185.33 1591.89 1196.85C1607.53 1198.04 1620.84 1200.23 1633.93 1203.08C1646.97 1205.89 1659.6 1209.29 1672.36 1212.79L1710.97 1223.49C1717.49 1225.25 1724.04 1227.19 1730.59 1229.23C1737.19 1231.12 1743.76 1233.15 1750.36 1235.23C1776.87 1243.37 1803.81 1252.04 1831.88 1258.89C1845.96 1262.23 1860.28 1265.2 1875.04 1266.84C1882.41 1267.64 1889.92 1268.04 1897.44 1267.72ZM1499.03 1218.55C1503.57 1232.44 1510.43 1246.19 1519.63 1258.59C1519.39 1260.2 1519.16 1261.8 1518.95 1263.45C1518.23 1268.8 1517.63 1274.11 1517.13 1279.41C1516.17 1290.03 1515.6 1300.65 1515.44 1311.28C1515.11 1332.55 1516.35 1353.89 1519.49 1375.12C1525.73 1417.43 1540.08 1460.07 1566.19 1496.08C1567.39 1497.72 1568.71 1499.28 1569.96 1500.89L1620.57 1497.44C1612.91 1489.72 1605.89 1481.43 1599.79 1472.39C1579.33 1442.45 1567.96 1406.36 1563.52 1369.17C1561.28 1350.53 1560.71 1331.57 1561.52 1312.61C1561.93 1303.16 1562.71 1293.68 1563.83 1284.31C1564.4 1279.6 1565.04 1274.93 1565.8 1270.32C1566.51 1265.84 1567.44 1260.8 1568.27 1257.21L1570.92 1245.75L1562.37 1235.69C1549.12 1222.41 1540.93 1203.32 1536.69 1182.09L1599.76 1179.23L1598.15 1151.09L359.224 1235.6L1491.36 1184.15C1492.89 1195.57 1495.23 1207.11 1499.03 1218.55ZM1056.56 1876.6C1088.71 1880.11 1120.61 1880.71 1152.49 1880.56C1184.33 1880.28 1216.11 1878.88 1247.79 1876.51C1279.48 1874.15 1311.11 1870.84 1342.65 1866.44C1374.17 1861.85 1405.68 1856.59 1436.95 1848.41C1404.8 1844.92 1372.89 1844.37 1341.04 1844.48C1309.19 1844.77 1277.43 1846.17 1245.71 1848.49C1214.03 1850.81 1182.4 1854.11 1150.84 1858.52C1119.29 1863.09 1087.83 1868.36 1056.56 1876.6ZM2237.99 2770.79C2225.88 2775.47 2213.79 2780.11 2201.63 2784.56C2203.76 2890.89 2173.2 3009.44 2089.67 3071.69C2032.03 3114.67 1959.2 3132.84 1887.75 3139.79C1682.24 3159.8 1504.64 2981.67 1504.64 2981.67C1554.11 3062.36 1716.59 3202.45 1977.44 3155.23C2201.01 3114.76 2233.33 2847.73 2237.99 2770.79ZM1750.49 3073.53C1860.77 3113.89 1973.67 3100.08 2060.17 3035.57C2082.83 3018.71 2102.43 2999.16 2119 2977.63C2097.93 2984.21 2077.61 2988.89 2057.99 2992.07C2052.37 3001.03 2045.93 3009.48 2038.65 3017.21C2024.49 3032.03 2006.49 3044.73 1986.37 3048.21C2002.77 3036.56 2015.12 3022.25 2025.77 3006.72C2028.32 3002.99 2030.73 2999.17 2033.09 2995.32C2020.88 2996.52 2008.96 2997.15 1997.4 2997.23C1992.23 3005.13 1986.45 3012.67 1979.96 3019.56C1965.8 3034.36 1947.81 3047.08 1927.65 3050.56C1944.05 3038.91 1956.44 3024.59 1967.05 3009.07C1969.83 3005.04 1972.43 3000.92 1974.95 2996.72C1853.11 2990.35 1771.11 2926.83 1744.16 2902.67C1739.53 2903.29 1734.91 2903.97 1730.23 2904.56C1713.52 2906.67 1694.76 2908.05 1674.75 2904.03C1664.75 2901.96 1654.07 2898.23 1644.24 2891.67C1634.4 2885.32 1626.08 2875.61 1621.04 2867.24L1617.77 2861.88L1616.76 2860.29L1616.6 2860.05L1617.07 2860.56C1617.09 2860.57 1617.07 2860.56 1617.09 2860.6C1616.33 2859.77 1615.59 2858.91 1614.88 2858.01C1613.43 2856.28 1612.28 2854.19 1611.23 2852.11C1609.35 2847.96 1608.52 2843.68 1608.39 2840.29C1608.19 2833.35 1609.61 2828.96 1610.85 2825.29C1613.48 2818.28 1616.39 2813.75 1619.2 2809.52C1622.05 2805.31 1624.89 2801.63 1627.77 2798.13C1632.37 2792.64 1637 2787.59 1641.69 2782.71C1545.45 2567.63 1642.97 2445.91 1703.8 2395.33C1668.08 2404.84 1634.71 2420.04 1605.17 2440.84C1536.11 2489.51 1494.16 2563.61 1483.85 2655.2C1463.4 2836.53 1573.05 3008.56 1750.49 3073.53ZM1432.24 2620.89C1443.25 2523.15 1513.08 2447.73 1587.21 2395.48C1667.95 2338.6 1819.67 2336.79 1927.43 2364.16C1925.11 2360.32 1923.11 2355.93 1921.13 2351.29C1783.29 2310.71 1667.27 2319.21 1576.29 2376.63C1472.17 2442.33 1420.52 2531.67 1432.24 2620.89ZM1818.44 2228.89C1818.41 2237.27 1830.81 2259.4 1851.16 2276.41C1864.93 2287.95 1878.49 2293.49 1888.27 2291.69C1917.52 2286.28 1929.13 2315 1937.61 2335.95C1940.33 2342.59 1942.88 2348.84 1945.53 2353.27C1989.93 2427.01 2095.12 2456.51 2174.07 2452.73C2190.92 2451.93 2235.59 2449.79 2251.68 2431.57C2256.23 2426.45 2258.15 2420.28 2257.57 2412.72C2253.88 2363.41 2219.23 2330.37 2182.56 2295.39C2148.71 2263.11 2113.91 2229.87 2101.8 2181.97C2093.15 2180.79 2084.83 2179.37 2076.83 2178.25C2066.51 2176.72 2056.59 2175.41 2047.13 2175.17C2042.35 2175.03 2038.24 2175.19 2033.04 2175.56C2027.77 2175.91 2022.71 2176.32 2017.75 2176.83C2012.8 2177.27 2007.95 2177.85 2003.37 2178.65C1998.88 2179.29 1994.25 2180.43 1991.13 2181.43L1990.15 2181.67L1988.31 2182.47L1987.39 2182.88L1987.27 2182.95C1988.01 2182.51 1987.81 2182.6 1987.73 2182.67L1987.63 2182.72L1987.39 2182.83C1987.05 2182.95 1986.72 2183.11 1986.4 2183.29C1985.08 2183.96 1983.73 2184.85 1982.27 2186.05C1979.33 2188.45 1976.24 2192.25 1972.27 2196.69C1968.4 2201.11 1963.28 2206.37 1956.55 2209.84C1953.2 2211.56 1949.59 2212.69 1946.08 2213.28L1943.24 2213.69L1941.17 2213.72C1938.88 2213.8 1937.48 2213.68 1935.65 2213.45C1928.77 2212.51 1923.11 2209.88 1918.35 2206.88C1913.44 2203.99 1909.19 2200.84 1904.19 2198.25C1909.8 2197.59 1915.65 2198.33 1921 2198.8C1926.39 2199.19 1931.32 2199.36 1935.24 2198.13C1936.12 2197.88 1937.37 2197.4 1937.79 2197.11L1939.68 2196.33L1940.72 2195.68C1942.36 2194.69 1943.67 2193.52 1944.83 2192.24C1947.12 2189.77 1948.83 2186.39 1951.07 2181.99C1953.23 2177.57 1955.8 2172.17 1960 2166.47C1962.05 2163.61 1964.65 2160.77 1967.64 2158.23C1968.37 2157.59 1969.17 2156.97 1969.96 2156.39L1970.56 2155.93L1970.87 2155.71L1971.63 2155.23L1972.48 2154.63L1974.16 2153.47L1976.81 2151.95C1989.65 2145.13 2000.99 2142.71 2012.52 2140.37C2018.21 2139.36 2023.85 2138.6 2029.33 2137.89C2034.84 2137.16 2041.52 2136.76 2047.49 2136.73C2059.6 2136.67 2071.13 2137.81 2082.13 2139.16C2104.07 2142 2124.33 2145.44 2142.05 2144.11C2146.6 2143.73 2150.57 2143.15 2153.28 2142.24C2156.11 2141.27 2157.61 2140.35 2159.25 2138.76C2162.63 2135.89 2167.17 2126.04 2174.04 2115.27C2181.65 2103.6 2191.39 2094.71 2200.75 2087.45C2205.43 2083.83 2210.08 2080.51 2214.63 2077.43L2221.37 2072.96L2225.17 2070.45L2229.09 2068.08C2239.47 2061.97 2249.6 2057.43 2258.75 2052.77C2263.24 2050.56 2267.51 2048.35 2271.43 2046.03L2270 2043.45C2272.75 2041.92 2278.25 2038.87 2285.87 2034.8C2290.03 2030.21 2292.99 2025.09 2294.52 2018.61C2294.99 2016.61 2295.31 2014.49 2295.53 2012.32L2295.77 2008.96L2295.91 2006.05C2295.28 2006.33 2294.71 2006.69 2294.08 2006.95C2280.11 2012.88 2264.39 2014.4 2250.51 2013.08C2236.45 2011.83 2223.67 2008.49 2211.45 2004.84C2199.24 2001.13 2187.52 1996.96 2175.96 1992.75L2141.59 1979.99L2124.53 1973.68L2115.57 1970.39C2111.91 1968.96 2108.16 1967.13 2104.51 1964.73C2097.23 1960.04 2090.52 1952.33 2087.23 1943.6C2083.89 1934.89 2083.53 1926.25 2084.24 1918.63C2085.77 1904.56 2090.29 1892.77 2095.44 1881.75C2037.08 1862.31 2001.01 1924.29 1963.53 2001.01C1958.95 2010.36 1954.65 2019.2 1950.55 2027.05C1948.19 2031.56 1945.97 2036 1943.81 2040.37C1934.99 2058.11 1926.69 2074.87 1911.55 2090.08C1902.6 2099.08 1892.71 2104.77 1883.17 2110.28C1876.44 2114.16 1870.08 2117.83 1864.41 2122.44C1843.68 2139.36 1818.57 2202.2 1818.44 2228.89ZM1908.71 2060.31C1914.75 2051.35 1919.6 2041.63 1924.88 2030.97C1927.11 2026.47 1929.37 2021.89 1931.81 2017.27C1933.63 2013.77 1935.51 2010.04 1937.4 2006.21L1839.88 1950.95C1802.41 1966.31 1765.91 1984.67 1730.31 2004.52C1725.47 2007.23 1720.67 2010.05 1715.88 2012.83L1908.71 2060.31ZM1865.29 1941.07L1946.77 1987.23C1957.61 1965.01 1970.32 1939.63 1985.63 1917.16C1983.28 1918.97 1980.97 1920.81 1978.61 1922.6L1974.68 1925.59L1969.44 1924.33C1950.93 1920.05 1929.49 1923.09 1909.05 1927.85C1894.35 1931.33 1879.75 1935.88 1865.29 1941.07ZM2058.39 1858.53C2072.67 1855.45 2088.29 1856.43 2105.49 1862.88C2115.47 1845.91 2126.8 1830.4 2138.52 1815.33C2165.67 1781.08 2195.11 1749.59 2226.35 1719.68C2215.37 1716.93 2204.39 1714.17 2193.4 1711.41C2188.23 1724.92 2180.79 1735.56 2173.08 1745.83C2165.25 1756.11 2156.84 1765.65 2148.25 1774.92C2130.99 1793.39 2112.79 1810.64 2094.21 1827.4C2082.44 1838 2070.47 1848.32 2058.39 1858.53ZM3387.05 1641.12C3411.51 1620.24 3453.55 1594.39 3481.21 1578.17C3473.19 1571.61 3465.13 1565.07 3457.16 1558.44C3435.77 1540.77 3414.57 1522.91 3393.55 1504.84C3383.8 1560.45 3385.08 1612.53 3387.05 1641.12ZM2303.91 2059.47C2295.77 2068.07 2287.04 2074.37 2278.47 2079.79C2311.57 2133.17 2392.95 2245.88 2442.16 2236.04C2499.61 2224.53 2619.84 2172 2644.76 2112.56C2648.35 2104.03 2649.68 2095.73 2648.95 2087.56L2423.09 2094.95L2647.91 2081.04C2646.79 2076.21 2644.97 2071.41 2642.35 2066.64L2712.07 2064.35C2724.56 2066.64 2739.37 2070.15 2755.43 2074.39L3121.44 2051.76C3121.52 2051.51 3121.6 2051.27 3121.68 2051.01C3121.68 2050.99 3121.68 2050.97 3121.71 2050.96L3148.52 2050.08L3390.95 2035.09L3391.28 2042.15L3392.28 2042.11L3390.95 2013.96L3353.04 2016.31C3328.69 1994.57 3305.39 1971.6 3283.76 1946.81C3272.93 1934.25 3262.64 1921.2 3253.21 1907.32L3249.8 1902.15C3248.56 1900.19 3247.41 1898.36 3246.35 1896.43C3244.19 1892.57 3242.24 1888.63 3240.53 1884.61C3237.09 1876.61 3234.52 1868.35 3232.47 1860.05C3224.52 1826.73 3224.16 1792.99 3225.77 1759.87C3227.25 1733.99 3230.16 1708.33 3234 1682.88H3085.2L3235.25 1674.97C3235.96 1670.57 3236.63 1666.15 3237.39 1661.75H3408.85C3408.52 1663.03 3408.2 1664.48 3407.87 1665.88L3414.25 1665.56C3414.33 1664.28 3414.36 1663.01 3414.47 1661.75H3486.44L3620.17 1654.69L3620.36 1661.75H3620.91L3620.44 1643.8C3622.8 1645.65 3625.12 1647.51 3627.48 1649.36C3677.21 1688.35 3726.92 1727.48 3777.2 1765.24C3789.83 1774.61 3802.51 1783.85 3815.29 1792.6C3821.67 1796.95 3828.13 1801.21 3834.49 1805C3840.29 1808.77 3849.08 1812.64 3846.05 1811.09C3850.89 1810.11 3856.81 1806.95 3862.37 1802.92C3867.99 1798.87 3873.43 1793.96 3878.64 1788.65C3886.88 1780.16 3894.84 1770.67 3902.11 1760.95L3553.95 1466.36L3554 1468.04H3394.23C3422.39 1489.2 3450.48 1510.49 3478.28 1532.12C3521.88 1565.81 3565.01 1600.12 3608.28 1634.2L3238.87 1653.65C3239.23 1651.65 3239.64 1649.67 3239.99 1647.67H2953.27L2886.49 1839.61C2906.05 1852.93 2924.69 1867.17 2943.24 1881.8C2953.32 1890 2963.31 1898.31 2973.23 1906.84C2983.05 1915.48 2992.69 1924.39 3002.2 1933.79C3006.93 1938.55 3011.73 1943.32 3016.28 1948.67C3020.88 1954.23 3025.35 1959.28 3030 1967.76C3031.15 1970.15 3032.35 1972.4 3033.39 1976.49C3033.88 1978.69 3034.37 1980.91 3034.16 1984.67C3034.03 1988 3032.68 1993.2 3029.39 1997.36C3027.75 1999.57 3024.73 2002.08 3022.08 2003.47L3021.53 2003.73L3021.27 2003.87L3021.15 2003.93L3018.88 2004.91C3015.72 2006 3014.17 2006.15 3012.52 2006.41C3009.56 2006.79 3007.45 2006.84 3005.4 2006.88C2997.44 2006.91 2990.87 2006.4 2984.09 2005.73C2957.56 2002.67 2932.15 1998.64 2906.63 1993.93C2855.76 1984.41 2805.37 1973.55 2755.31 1961.04C2705.25 1948.6 2655.44 1935.11 2606.23 1918.85C2657.88 1923.01 2709.03 1929.29 2760.05 1936.08C2770.37 1937.4 2780.72 1938.81 2791.05 1940.24C2738.41 1919.23 2682.63 1896.67 2665.16 1888.51C2657.05 1884.73 2651.11 1877.79 2647.55 1867.89C2632.51 1826.35 2663.52 1737.68 2676.49 1710.07C2692.44 1676.19 2737.92 1671.17 2765.12 1668.16C2771.05 1667.51 2778.37 1666.69 2781 1665.88C2783.05 1663.67 2787.47 1657.05 2793.32 1647.67H2715.41L2795.95 1643.41C2799.05 1638.35 2802.47 1632.71 2806.15 1626.53H2960.63L2957.69 1634.89L3250.37 1619.48L3250.56 1626.53H3251.11L3250.37 1598.36L3250.01 1598.37C3252.53 1587.09 3255.11 1575.84 3257.79 1564.63C3265.65 1532.15 3274.64 1500 3284.25 1468.04H3018.31L3288.57 1453.81C3289.27 1451.52 3289.95 1449.21 3290.65 1446.92H3366.11C3367.25 1447.79 3368.43 1448.67 3369.59 1449.55L3553.27 1439.87L3553.43 1446.92H3554L3553.79 1438.53L3794.04 1641.83L3902.43 1584.45C3875.76 1551.95 3850.89 1518.27 3826.88 1483.83C3800.83 1445.91 3775.88 1407.19 3753.29 1366.56L3744.93 1351.23C3742.09 1345.87 3738.91 1339.43 3736.61 1333.21C3731.71 1320.61 3728.61 1307.21 3727.71 1293.76C3726.69 1280.32 3727.68 1266.95 3729.93 1254.09C3732.37 1241.25 3736.36 1229.01 3741.13 1217.35C3745.87 1205.67 3751.84 1194.72 3758.29 1184.31C3764.73 1173.85 3771.95 1164.05 3779.64 1154.79C3786.48 1146.57 3793.65 1138.85 3801.19 1131.49C3737.16 1145.23 3674.85 1166.87 3618.65 1199.73C3584.89 1219.49 3553.45 1243.2 3525.8 1270.73C3499.64 1296.65 3476.99 1325.87 3458.09 1357.56L3528.84 1417.43C3544.23 1390.12 3563.59 1365.29 3586.15 1344.2C3598.95 1332.24 3612.72 1321.44 3627.28 1312.01C3641.88 1302.64 3657.16 1294.31 3673.37 1288.43C3657.91 1295.92 3643.69 1305.67 3630.39 1316.29C3617.09 1326.97 3604.85 1338.8 3593.76 1351.53C3575.96 1371.95 3561.37 1394.75 3550.03 1418.91L3500.93 1421.49L3369.2 1310.01C3359.31 1334.88 3349.79 1359.89 3340.64 1385.01C3336.56 1396.33 3332.61 1407.71 3328.69 1419.09C3333.55 1422.63 3338.28 1426.25 3343.11 1429.8L3295.2 1432.32C3301.23 1413.35 3307.39 1394.43 3313.83 1375.57C3324.45 1344.49 3335.68 1313.6 3347.56 1282.92C3359.56 1252.25 3371.83 1221.75 3386.12 1191.63C3389.71 1184.07 3393.41 1176.56 3397.55 1168.95C3401.71 1161.23 3406.83 1153.43 3411.95 1146.52C3422.33 1132.53 3433.64 1119.96 3445.25 1107.83C3468.51 1083.67 3493.09 1061.52 3518.15 1040C3559.75 1004.81 3602.67 971.76 3646.53 939.76H3148.6L3683.56 911.574L3683.76 918.614H3684.31L3683.56 890.454L3665.05 891.427C3649.05 859.68 3631.75 829.054 3610.03 801.294C3579 761.334 3539.87 727.987 3495.31 704.134C3450.84 680.054 3401.4 665.081 3350.75 658.507C3325.41 655.267 3299.75 653.681 3274.09 654.121C3249.57 654.587 3224.49 656.614 3200.88 660.774C3190.59 672.467 3178.43 681.627 3165.8 689.254C3151.97 697.561 3137.51 704.214 3122.87 709.987C3093.53 721.467 3063.4 729.574 3033.17 736.307C2972.6 749.614 2911.36 757.307 2850.15 762.987C2819.53 765.827 2788.92 768.121 2758.36 770.187L2712.59 773.254L2689.95 774.974C2682.41 775.667 2675.07 776.267 2668.77 777.587C2662.39 778.921 2656.51 781.014 2652.15 783.894C2647.77 786.774 2645.13 790.12 2643.83 794.294C2642.45 798.44 2642.48 803.947 2643.88 809.347L2644.43 811.267C2644.61 811.814 2644.92 812.6 2644.87 812.4C2645.47 813.747 2646.27 815.307 2647.05 816.787C2648.67 819.774 2650.45 822.76 2652.32 825.667C2659.79 837.28 2669.05 847.667 2679.61 854.641C2690.19 861.667 2701.91 864.774 2713.93 863.347L2715.93 863.08L2718.67 862.587L2723.32 861.521C2726.69 860.641 2730.23 859.627 2733.76 858.56L2755.31 851.68C2769.8 846.947 2784.45 842.12 2799.27 837.6C2828.84 828.534 2859 820.467 2890.05 815.147C2921.08 809.96 2953.15 807.187 2985.73 811.507C3001.97 813.734 3018.36 817.894 3033.83 824.96C3049.03 831.854 3063.19 841.8 3074.77 854.147L2990.12 858.747H3078.8C3083.04 863.707 3086.8 868.987 3090.28 874.427L3507.44 851.707L3507.64 858.747H3508.21L3508.19 857.054C3536.69 863.681 3565.09 870.934 3593.24 879.641C3606.28 883.721 3619.24 888.214 3632.11 893.16L3582.76 895.747C3558.21 887.587 3533.21 880.427 3508.05 873.8L3508.21 879.88L3093.59 879.894C3096.93 885.707 3099.95 891.694 3102.4 897.827L3104.71 903.76L3105.67 906.454L3106.76 909.787C3108.07 914.054 3109.08 918.401 3109.85 922.721C3111.36 931.401 3111.77 940.107 3111.41 948.574C3110.73 965.587 3107.15 981.774 3102.32 997.214C3097.45 1012.64 3091.35 1027.43 3084.28 1041.57C3058.85 1091.75 3026.41 1136.39 2989.79 1177.75C2995.13 1178.11 3000.53 1178.45 3005.87 1178.77L3043.25 1180.52C3068.2 1181.49 3093.23 1182.23 3118.2 1182.77H3118.29L3156.91 1182.61L3123.24 1202.56L2726.45 1437.61C2698.97 1472.59 2671.79 1508.17 2645.52 1544.13C2631.95 1562.79 2618.57 1581.57 2605.84 1600.64C2599.49 1610.17 2593.29 1619.77 2587.57 1629.47C2584.72 1634.29 2581.96 1639.17 2579.55 1643.99C2578.97 1645.13 2578.4 1646.33 2577.85 1647.51C2580.04 1653.49 2582.09 1659.52 2583.85 1665.67C2588.84 1683 2592.17 1701.08 2592.39 1719.65C2592.69 1738.13 2589.91 1757.33 2582.15 1774.89C2576.19 1788.92 2566.95 1801.37 2556 1811.53C2556 1811.65 2555.97 1811.76 2555.97 1811.87C2555.45 1814.85 2554.88 1817.79 2554.13 1820.71C2552.73 1826.56 2550.96 1832.33 2548.77 1837.92C2540.03 1860.44 2525.39 1879.87 2508.45 1895.55C2507.08 1896.81 2505.61 1897.95 2504.21 1899.17C2512.4 1929.64 2615.97 2030.65 2685.95 2057.56L2642.29 2060.25L2643.25 2059.63C2604.69 2036.83 2563.67 2002.25 2532.75 1970.35L2530.8 1973.95C2500.71 1957.92 2393.76 2002.71 2314.72 2043.47C2311.91 2049.4 2308.24 2054.92 2303.91 2059.47ZM2317.93 1993.47C2317.96 1993.51 2317.99 1993.56 2317.99 1993.61C2319.24 1997.89 2319.47 2001.28 2319.83 2003.95L2320.31 2007.91C2320.48 2009.47 2320.61 2011.05 2320.69 2012.65C2320.75 2014 2320.61 2015.41 2320.61 2016.79C2376.21 1988.92 2462.77 1950.11 2514.04 1949.99C2501.72 1935.71 2492.35 1922.77 2487.23 1912.72C2476.08 1920.77 2464.41 1927.91 2452.37 1934.03C2442.35 1939.12 2432.13 1943.67 2421.72 1947.71C2411.56 1951.6 2401.76 1954.99 2390.61 1957.96C2369.44 1965.55 2347.53 1975.88 2327.57 1987.52C2324.28 1989.44 2321.13 1991.45 2317.93 1993.47ZM2565.85 1619.53C2566.08 1619.08 2566.29 1618.63 2566.51 1618.16C2571.75 1607.41 2577.36 1597.03 2583.08 1586.76C2594.53 1566.21 2606.55 1546.13 2618.76 1526.23C2643.25 1486.4 2668.44 1447.31 2694.4 1408.33L2696.52 1405.15L2701.28 1402.2H2701.31L3077.84 1202.69C3066.04 1202.33 3054.23 1202.09 3042.4 1201.63L3004.67 1199.87C2992.01 1199.11 2979.55 1198.4 2966.4 1196.76L2946.25 1194.24L2960.03 1179.13L2960.11 1179.05C2975.52 1160.68 2990.48 1141.4 3004.47 1121.6C3004 1121.63 3003.55 1121.67 3003.08 1121.67C2983.25 1121.67 2958.52 1111.48 2945.04 1095.92C2930.15 1110.09 2921.13 1120.28 2922.01 1136.41C2922.4 1143.95 2926.09 1147.92 2932.56 1154.31C2938.72 1160.35 2946.36 1167.87 2947.45 1180.33L2948.28 1190L2938.72 1191.65C2933.32 1192.59 2928.39 1193.03 2923.84 1193.03C2900.81 1193.03 2888.19 1182.17 2881.43 1172.13C2871.92 1158.05 2869.51 1139.16 2871.79 1119.32C2870.61 1119.44 2869.37 1119.51 2868.12 1119.56C2868.04 1120.27 2867.97 1120.95 2867.89 1121.67C2866.61 1133.21 2864.07 1144.32 2861.57 1155.04C2859.68 1163.36 2857.88 1171.23 2856.69 1179C2851.8 1211.24 2831.88 1249.69 2765.95 1252.6C2765.67 1253.39 2765.51 1254.11 2765.15 1254.89C2758.27 1271.08 2738.93 1289.97 2724.61 1294.56C2720.01 1296.03 2715.44 1296.76 2711 1296.76C2703.96 1296.76 2697.23 1294.93 2691.04 1291.25C2688.91 1290 2686.96 1288.53 2685.09 1286.97C2663.89 1300.27 2645.63 1320.35 2628.52 1340.85C2619.53 1351.59 2610.93 1362.77 2602.59 1374.21C2594.09 1385.52 2585.93 1397.16 2577.96 1408.95C2561.51 1432.21 2546.65 1456.69 2530.53 1480.43C2517.13 1500.13 2503.47 1519.85 2488.57 1538.88C2492.71 1541.68 2496.87 1544.44 2500.95 1547.37C2513.13 1556.08 2524.92 1565.56 2536.12 1576.48C2546.69 1587.24 2557.53 1598.83 2564.16 1616.28C2564.73 1617.37 2565.31 1618.45 2565.85 1619.53ZM2496.49 1459.55C2510.76 1433.75 2527.65 1409.51 2544.91 1385.44C2553.77 1373.56 2562.95 1361.88 2572.48 1350.4C2582.17 1339.04 2592.28 1327.97 2602.99 1317.33C2613.87 1306.85 2625.15 1296.63 2637.75 1287.64C2647.85 1280.33 2658.84 1273.76 2670.91 1268.93C2668.91 1265.2 2667.29 1261.45 2666.01 1257.95C2659.13 1261.96 2651.44 1264.79 2644.48 1264.92C2644.29 1264.93 2644.09 1264.93 2643.91 1264.93C2642.04 1264.93 2640.24 1264.72 2638.51 1264.33C2631.75 1271.31 2624.29 1277.08 2616.73 1282.28C2605.51 1289.91 2593.79 1296.19 2581.88 1301.81C2571.77 1306.56 2561.56 1310.84 2551.27 1314.87C2542.49 1326.11 2532.77 1336.28 2522.61 1345.81C2509.39 1358.13 2495.39 1369.35 2480.99 1379.85C2452.12 1400.77 2421.72 1419.17 2390.2 1435.17C2419.95 1416.13 2448.2 1394.89 2474.36 1371.64C2487.4 1359.97 2499.85 1347.75 2511.25 1334.76C2513.55 1332.12 2515.8 1329.43 2518.01 1326.72C2514.95 1327.71 2511.91 1328.75 2508.84 1329.69C2484.11 1337.4 2459.16 1343.99 2434.05 1349.88C2408.91 1355.57 2383.65 1360.55 2358.29 1364.89C2307.57 1373.71 2256.43 1379.57 2204.69 1382.53C2189.99 1383.31 2175.23 1383.83 2160.35 1383.88C2196.48 1397.16 2232.35 1411.08 2267.87 1426.05C2321.44 1448.43 2374.19 1472.91 2425.72 1500.73C2439.36 1508.29 2452.92 1516.12 2466.28 1524.41C2474.55 1501.81 2484.99 1480.43 2496.49 1459.55ZM2128.85 1340.99C2153.01 1342.47 2177.96 1342.45 2202.85 1341.59C2224.57 1340.81 2246.35 1339.29 2268.12 1337.4C2243.03 1327.32 2183.13 1324.09 2131.37 1327.15C2077.84 1330.25 2060.04 1243.2 2045.65 1173.21C2041.05 1150.85 2037.08 1131.52 2032.76 1119.41C2029.41 1110.01 2025.15 1104.27 2021.07 1103.64C2014.08 1102.56 2002.75 1112.95 1998.25 1118.77L1994.17 1115.63C2001.76 1141.16 2009.61 1166.56 2018.08 1191.68C2026.05 1215.51 2034.48 1239.15 2043.77 1262.09C2048.35 1273.57 2053.13 1284.92 2058.31 1295.77C2063.45 1306.51 2069.13 1317.23 2075.09 1325.33C2077.95 1329.31 2081.23 1332.41 2081.79 1332.44C2084.13 1333.79 2089.25 1335.44 2094.35 1336.57C2104.87 1338.92 2116.87 1340.2 2128.85 1340.99ZM2850.2 1073.59C2859.11 1081.35 2864.61 1086.68 2867.13 1095.04C2868.41 1095.97 2869.65 1097.08 2870.85 1098.23C2872.77 1097.97 2874.59 1097.59 2876.17 1097.04C2879.04 1086.63 2883.01 1076.35 2887.72 1066.69C2884.96 1051.71 2876.41 1034.71 2865.03 1024.47C2849.23 1010.28 2819.17 1004.52 2798.01 1011.67C2788.45 1014.91 2781.65 1020.31 2777.61 1027.67C2785.49 1027.79 2792.92 1028.6 2799.24 1030.36C2814.19 1034.55 2823.75 1045.75 2832.21 1055.61C2835.44 1059.44 2838.53 1063.03 2841.64 1065.91C2844.87 1068.91 2847.72 1071.4 2850.2 1073.59ZM2745.97 1206.11C2736 1199.35 2708.68 1198.75 2698.81 1205.11C2692.05 1209.43 2691.45 1213.41 2690.24 1221.32C2689.37 1227.07 2688.28 1234.2 2684 1241.47C2683.81 1241.8 2683.51 1242.16 2683.29 1242.48C2686.19 1253.93 2692.35 1267.47 2701.83 1273.11C2706.68 1275.96 2712.01 1276.39 2718.17 1274.43C2729.52 1270.8 2747.87 1248.79 2746.88 1242.21L2751.2 1240.19C2751.64 1237.23 2752.13 1234.35 2752.65 1231.61C2755.35 1217.17 2755.67 1212.72 2745.97 1206.11ZM2777.63 1132.28C2783.6 1128.83 2790.8 1127.55 2797.84 1127.19C2804.93 1126.85 2812.05 1127.49 2819.12 1128.71C2826.19 1129.97 2833.17 1131.84 2840.11 1134.49C2841.41 1135.03 2842.76 1135.61 2844.09 1136.2C2845.25 1130.59 2846.27 1124.92 2846.89 1119.32C2847.72 1111.99 2848.17 1107.51 2847.69 1104.11C2847.19 1103.8 2846.76 1103.47 2846.21 1103.2C2841.33 1100.52 2835.52 1098.53 2829.53 1096.93C2817.45 1093.73 2804.47 1092.32 2791.71 1090.03C2804.59 1088.81 2817.29 1086.65 2830.73 1086.45C2831.45 1086.44 2832.16 1086.47 2832.87 1086.47C2831.12 1084.92 2829.28 1083.28 2827.25 1081.4C2823.25 1077.67 2819.64 1073.43 2816.13 1069.35C2809.01 1061.03 2802.31 1053.16 2793.57 1050.72C2772.01 1044.71 2730.56 1053.11 2711.44 1061.55C2700.43 1066.4 2689.45 1080.36 2678.8 1093.84C2665.4 1110.87 2651.57 1128.25 2633.85 1133.91C2632.79 1138.56 2632.19 1143.59 2631.96 1148.65C2631.51 1158.96 2632.32 1169.67 2633.8 1180.35C2635.28 1191.05 2637.44 1201.76 2640.01 1212.39C2642.53 1222.68 2645.49 1233.13 2648.81 1242.97C2654.72 1240.73 2663.03 1235.44 2665.79 1230.76C2668.01 1227 2668.64 1222.89 2669.35 1218.13C2670.72 1209.13 2672.61 1196.81 2687.4 1187.32C2704.51 1176.32 2740.75 1177 2757.85 1188.64C2777.17 1201.79 2776.51 1217.48 2774.24 1230.89C2802.72 1227.79 2821.12 1215.88 2830.24 1195.08L2826.16 1196.24C2826.19 1192.87 2823.48 1188.01 2819.15 1183.92C2814.88 1179.76 2809.48 1176.04 2803.73 1172.81C2792.15 1166.37 2779.25 1161.44 2765.88 1158.11C2779.72 1157.96 2793.71 1159.45 2807.65 1163C2814.6 1164.84 2821.59 1167.24 2828.47 1171.09C2830.87 1172.47 2833.36 1174.09 2835.75 1176.04C2835.75 1175.96 2835.77 1175.91 2835.8 1175.83C2836.87 1168.73 2838.43 1161.64 2840.01 1154.65C2837.83 1152.51 2835.28 1150.41 2832.65 1148.49C2827.56 1144.81 2821.95 1141.55 2816.03 1138.8C2810.11 1136.09 2803.89 1133.84 2797.43 1132.45C2791.03 1131.13 2784.27 1130.51 2777.63 1132.28ZM2961.09 1082.39C2970.27 1092.96 2990.56 1101.71 3005.81 1100.43C3017.27 1099.44 3024.65 1091.8 3024.65 1091.8C3037.67 1071.72 3049.6 1051.04 3059.57 1029.69C3066.2 1015.32 3072.17 1000.53 3076.47 985.654C3068.41 974.921 3057.83 968.547 3045.77 967.214C3035.41 966.08 3024.68 968.921 3014.85 975.241C3013.04 979.334 3010.44 983.254 3007.35 986.974C3014.08 992.707 3017.95 999.587 3018.8 1007.55C3021.64 1035.11 2985.25 1063.55 2961.09 1082.39ZM2902.32 1042.29C2909.33 1032.6 2916.95 1024.51 2924.95 1018.16C2913.63 1018.91 2901.01 1019.79 2890.68 1021.69C2895.23 1027.91 2899.17 1034.93 2902.32 1042.29ZM2933.05 1078.13L2934.2 1077.07C2937.29 1074.15 2942.03 1070.45 2948 1065.79C2963.39 1053.77 2999.43 1025.67 2997.76 1009.73C2997.47 1006.76 2995.29 1003.92 2991.39 1001.27C2986.01 1004.96 2980.45 1008.03 2975.17 1010.25C2975.17 1010.25 2931.27 1035.07 2914.09 1062.61C2912.51 1065.13 2911.03 1067.73 2909.61 1070.36C2910.4 1079.69 2909.39 1088.73 2905.93 1096.56C2904.03 1100.85 2900.57 1106.29 2894.71 1110.84C2890.52 1131.01 2891.64 1149.47 2898.95 1160.32C2903.52 1167.11 2910.61 1170.91 2920.09 1171.72C2919.39 1170.97 2918.59 1170.19 2917.73 1169.36C2911 1162.73 2901.77 1153.64 2900.89 1137.55C2899.41 1109.87 2917.31 1093.01 2933.05 1078.13ZM2865.24 856.134C2865.65 856.147 2866.67 855.627 2867.6 854.667C2866.67 854.934 2865.87 855.214 2865.37 855.534C2864.91 855.854 2864.75 856.12 2865.24 856.134ZM2662.23 1080.77C2674.44 1065.24 2687.09 1049.19 2702.92 1042.21C2715 1036.87 2734.64 1031.53 2754.44 1029.07C2759.43 1011.29 2772.27 998.094 2791.24 991.667C2817.45 982.774 2851.36 988.414 2873.43 1004.4C2887.51 999.454 2906.27 998.2 2924.59 997C2938.77 996.08 2953.43 995.121 2962.47 992.454C2976.07 988.401 2991.44 976.014 2995.57 966.707L2993.76 964.627C2994.69 963.827 2995.68 963.134 2996.64 962.374C2996.61 956.241 2985.63 951.894 2980.89 950.307C2973.17 947.694 2962.96 952.441 2953.04 956.987C2946.96 959.774 2940.69 962.667 2934.48 964.134C2915.65 968.56 2906.4 964.987 2892.39 959.587L2886.49 957.347C2871.84 951.894 2857.47 950.974 2846.92 954.454C2846.92 954.454 2828.49 974.587 2828.08 982.534C2828.08 982.534 2808.39 969.761 2809.92 964.987C2720.45 971.907 2631.61 988.561 2546.39 1017.12C2497.85 1033.41 2450.53 1053.55 2405.48 1077.96C2382.97 1090.17 2361.01 1103.47 2339.92 1117.96C2327.19 1126.75 2314.61 1136.12 2302.63 1145.91C2307.83 1146.05 2313 1146.29 2318.07 1146.56C2340.11 1147.63 2361.67 1149.89 2382.09 1149.27C2392.07 1149.01 2402.39 1147.79 2409.53 1145.59C2417.32 1143.21 2422.93 1139.15 2429.88 1132.47C2436.73 1125.93 2444.16 1117.01 2454.25 1108.63C2459.27 1104.47 2464.96 1100.48 2471.13 1097.28C2477.27 1094.11 2484.13 1091.6 2490.36 1089.95C2502.71 1086.85 2514.27 1085.4 2526.04 1084.65C2537.79 1084.03 2549.56 1084.19 2561.39 1085.56C2573.2 1086.97 2585.13 1089.37 2596.96 1094C2602.83 1096.37 2608.77 1099.19 2614.31 1103.24C2617.87 1105.75 2621.25 1108.84 2624.24 1112.43L2626.73 1113.99C2638.73 1110.59 2650.67 1095.44 2662.23 1080.77ZM2851.6 880.467C2849.49 877.027 2847.44 873.401 2845.65 869.187C2844.37 866.081 2843.05 862.747 2842.24 858.36C2842.07 857.294 2841.91 856.147 2841.83 854.921C2830.35 857.934 2818.91 861.147 2807.51 864.614C2800.88 866.627 2794.25 868.72 2787.63 870.827L2851.6 880.467ZM2325.39 1097.84C2346.55 1081.79 2368.6 1066.99 2391.29 1053.24C2436.71 1025.79 2484.68 1002.65 2534.17 983.414C2632.84 945.067 2737.32 922.401 2842.68 912.321C2844.37 909.961 2846.09 907.747 2847.83 905.641C2848.87 904.254 2849.91 903 2850.95 901.747L2742.12 885.36L2741.84 885.454C2738.05 886.574 2734.23 887.667 2730.2 888.694C2728.07 889.227 2726.37 889.641 2723.63 890.174L2720.75 890.68L2717.08 891.174C2698.57 893.507 2678.99 888.001 2664.25 877.921C2661.52 876.081 2659.05 874.054 2656.56 872.041C2486.93 858.401 2371.96 765.281 2367.05 761.254L2369 758.894C2351.01 753.56 2333.37 746.961 2316.17 739.241C2304.95 734.201 2293.92 728.694 2283.07 722.694C2279.17 720.534 2275.43 718.334 2271.68 716.121C2266.61 733.214 2261.43 750.267 2255.87 767.254C2247.31 793.521 2238.09 819.614 2227.56 845.387C2222.21 858.254 2216.57 871.041 2210.17 883.641C2204.72 894.241 2198.83 904.734 2191.44 914.814L2205.87 967.8C2213.92 997.854 2222.63 1027.69 2231.17 1057.31C2233.2 1064.75 2235.23 1072.16 2237.41 1079.49C2239.44 1086.88 2241.49 1094.23 2243.65 1101.48C2245.68 1108.79 2247.99 1115.96 2250.2 1122.97C2252.53 1129.84 2254.97 1136.91 2257.6 1142.11L2258.56 1144.04C2262.23 1143.76 2265.84 1143.76 2269.16 1144C2270.05 1144.05 2270.85 1144.17 2271.71 1144.25C2288.71 1127.12 2306.61 1112.24 2325.39 1097.84ZM2283.53 674.6C2289.69 680.227 2296.71 685.974 2303.55 691.267C2312.51 698.187 2321.84 704.76 2331.43 710.934C2350.63 723.294 2370.92 734.2 2392.17 743.067C2434.57 760.867 2481.32 770.534 2528.75 767.174C2492.44 775.401 2454.09 775.667 2416.47 769.707C2459.05 796.094 2536.67 835.747 2634.4 848.48C2632.51 845.907 2630.65 843.334 2628.93 840.68C2626.65 837.147 2624.57 833.534 2622.6 829.774C2621.59 827.881 2620.65 826.027 2619.69 823.894C2618.83 821.947 2618.52 820.934 2618.11 819.654C2617.72 818.441 2617.4 817.254 2617.09 816.054C2614.8 806.667 2614.33 796.267 2617.72 785.827C2620.99 775.32 2628.81 766.28 2637.33 761.014C2645.88 755.56 2654.77 752.814 2663.32 751.054C2664.48 750.827 2665.6 750.667 2666.72 750.48C2672.59 743.24 2678.52 736.134 2684.83 729.134C2688.93 724.587 2693.17 720.094 2697.72 715.694C2701.39 712.227 2704.97 708.814 2709.69 705.48C2710.73 700.867 2711.83 696.267 2712.95 691.68C2708.37 690.574 2703.91 689.361 2699.53 688.107C2690.19 685.401 2681.04 682.44 2671.95 679.4C2653.8 673.32 2635.85 666.867 2618 660.267C2582.27 647.027 2546.93 633.294 2511.52 619.08C2511.52 619.08 2509.91 616.414 2507 619.334C2495.8 630.6 2483.56 640.427 2470.85 649.374C2458.12 658.307 2444.89 666.307 2431.33 673.667C2417.69 681.014 2404.08 687.667 2389.41 693.654L2389.39 693.667L2385.8 695.667L2379.33 692.387C2348.96 677.027 2320.28 659.294 2292.84 639.88C2289.84 651.494 2286.71 663.067 2283.53 674.6ZM3028.21 713.187C3057.73 707.054 3086.99 699.56 3114.81 689.094C3128.67 683.854 3142.2 677.827 3154.68 670.534C3162.08 666.227 3169.04 661.374 3175.39 656.041C3170.51 655.241 3165.75 654.321 3161.07 653.254C3147.17 650.094 3133.84 645.96 3120.67 641.534C3094.32 632.814 3068.96 622.294 3043.69 611.8C2993.44 590.307 2944.31 566.707 2895.56 544.387C2883.43 538.801 2871.27 533.321 2859.36 528.507C2853.41 526.107 2847.47 523.827 2842.07 522.147C2840.45 521.627 2838.95 521.214 2837.59 520.894C2836.24 522.12 3093.85 656.067 3092.24 658.014C3088.88 662.067 2821.48 540.88 2815.17 552.334C2789.6 598.334 2969.04 725.294 3028.21 713.187ZM3474.96 1244.99C3468.36 1258.8 3401.55 1233.05 3395.36 1247.13L3469.81 1302.53C3482.41 1286.03 3496.16 1270.35 3510.89 1255.73C3513.25 1253.41 3515.75 1251.31 3518.12 1249.03L3430.08 1176.29C3428.44 1178.88 3426.83 1181.47 3425.28 1184.24C3421.56 1190.97 3478.44 1237.81 3474.96 1244.99ZM3533.65 1234.43L3533.76 1234.53C3534.67 1233.73 3535.68 1233 3536.59 1232.23L3533.65 1234.43ZM3640.4 985C3606.04 1010.85 3494.68 1185.77 3486.72 1195.68L3524.51 1226.89C3522.59 1221.25 3521.96 1215.51 3521.91 1210.33C3521.91 1201.72 3523.31 1193.77 3525.19 1186.15C3529 1170.95 3534.72 1156.96 3540.96 1143.37C3553.59 1116.27 3568.63 1090.88 3584.35 1066.05C3600.15 1041.27 3616.85 1017.17 3634.08 993.494C3636.16 990.627 3638.32 987.84 3640.4 985ZM3813.73 1825.87C3808.8 1822.97 3803.99 1820.04 3799.21 1817.05C3785.57 1808.4 3772.35 1799.44 3759.2 1790.39C3732.23 1771.75 3705.77 1752.57 3679.6 1733.09C3633.23 1754.4 3582.61 1782.73 3574.84 1794.35C3586.61 1816.67 3647.52 1922.31 3664.95 1952.47L3722.72 1928.23L3667.49 1815.53L3740.96 1920.59L3796.97 1897.11L3813.73 1825.87ZM4162.68 1811.88C4134.12 1945.11 4006.28 1980.48 3907.2 1980.48C3887.59 1980.48 3869.11 1979.11 3852.76 1976.81C3811.81 1971.09 3769.12 1958.08 3755.37 1937.45C3755.37 1937.45 3895.25 2137.21 4160.83 1967.65C4221.09 1904.19 4258.01 1819.4 4258.01 1726.32C4258.01 1530.17 4094.21 1370.6 3892.91 1370.6C3863.57 1370.6 3837.2 1372.08 3810.2 1377.88C3821.89 1398.99 3833.88 1420.03 3846.01 1441.04C3899.31 1428.79 4012.75 1435.56 4092.71 1507.15C4144.51 1553.48 4198.67 1643.97 4162.68 1811.88ZM3930.15 1757L3925.39 1764.73L3925.36 1764.79C3916.84 1779.23 3907.67 1792.55 3896.55 1805.25C3890.99 1811.56 3885.01 1817.68 3878.12 1823.33C3871.16 1828.89 3863.36 1834.31 3852.79 1837.37C3851.47 1837.73 3850.09 1838.07 3848.71 1838.31L3848.19 1838.41L3847.91 1838.45L3846.48 1838.6L3845.61 1838.65C3843.77 1838.71 3841.36 1838.36 3840.81 1838.2C3837.36 1837.48 3835.2 1836.64 3833.12 1835.81L3815.07 1912.43L3775.8 1928.91C3784.64 1937 3809.63 1949.45 3855.68 1955.89C3947.48 1968.72 4111.05 1951.88 4142.01 1807.45C4169.2 1680.6 4147.87 1584.87 4078.64 1522.89C4008.28 1459.93 3907.33 1451.28 3857.16 1460.31C3880.59 1500.64 3904.35 1540.96 3927.39 1581.72V1581.73L3934.23 1591.53L3923.68 1597.13L3811.43 1656.55L3923.19 1751.12L3930.15 1757ZM3776.08 1308.92C3776.84 1311.73 4285.01 1270.81 4279.16 1726.32C4277.87 1826.03 4239.17 1916.77 4174.13 1984.25L4174.37 1984.8C4173.91 1985.01 4173.44 1985.21 4172.95 1985.43C4102.55 2057.87 4003.08 2103.17 3892.91 2103.17C3679.92 2103.17 3506.65 1934.12 3506.65 1726.32C3506.65 1711.8 3507.56 1697.24 3509.23 1682.88H3508.19C3495.31 1747.77 3453.19 2072.23 3885.87 2123.12C4125.36 2151.31 4277.97 1939.97 4292.05 1749.8C4305.61 1566.92 4251.41 1461.81 4139.95 1380.15C4028.03 1298.13 3873.57 1282.81 3776.08 1308.92ZM4275.16 1991.88C4266.95 2003.21 4258.17 2014.4 4249.8 2026.87C4263.73 2021.23 4276.17 2012.92 4287.4 2003.12C4298.57 1993.25 4308.45 1981.69 4316.29 1968.67C4324.15 1955.68 4329.91 1941.2 4332.53 1926.13C4335.11 1911.11 4334.59 1895.48 4329.63 1881.28C4325.83 1895.79 4321.83 1909.04 4316.6 1921.65C4311.41 1934.25 4305.23 1946.17 4298.21 1957.75C4291.2 1969.33 4283.43 1980.59 4275.16 1991.88ZM4224.6 2016.11C4236.81 2002.27 4247.23 1986.91 4255.55 1970.6C4263.76 1954.23 4270.23 1936.99 4273.27 1918.85C4262.15 1933.44 4252.12 1947.95 4241.51 1961.83C4230.99 1975.79 4220.17 1989.23 4208.77 2002.13C4197.39 2015.01 4185.41 2027.33 4172.71 2039.13C4160.05 2051.03 4146.52 2062.11 4132.39 2073.81C4150.41 2070.08 4167.33 2062.19 4182.87 2052.28C4198.37 2042.25 4212.41 2029.96 4224.6 2016.11ZM3606.77 2206.19L3624.11 2197.56L3594.61 2107.09C3483.43 2009.47 3412.75 1864.52 3412.75 1702.83C3412.75 1696.19 3412.93 1689.53 3413.21 1682.88H3404.72C3393.41 1760.73 3402.25 1946.05 3578.27 2118.43C3623.27 2162.47 3598.92 2174 3592.95 2187.41L3590.28 2187.59C3535 2154.28 3481.37 2118.07 3429.67 2079.11C3416.85 2069.29 3404.17 2059.21 3391.6 2048.97L3392.28 2063.24L3148.52 2071.21C3146.36 2076.19 3143.95 2081.12 3141.01 2086C3136.09 2094.07 3129.81 2102.13 3120.89 2108.51C3119.85 2109.28 3118.43 2110.17 3117.08 2110.97C3115.49 2111.96 3115.05 2112.07 3114.01 2112.63L3108.71 2115.23C3105.44 2116.88 3102.13 2118.73 3098.79 2120.63C3092.13 2124.47 3085.45 2128.6 3078.8 2132.83C3065.49 2141.29 3052.4 2150.33 3039.17 2159.25C3003.92 2183.24 2968.92 2207.88 2933.71 2232.36L2917.83 2233.44C2952.44 2201.17 2988.15 2170.11 3024.88 2140.05C3037.41 2129.87 3050.24 2120.03 3063.32 2110.31C3069.89 2105.47 3076.55 2100.69 3083.51 2096.05C3086.99 2093.72 3090.52 2091.44 3094.27 2089.19L3099.56 2086.15C3100.29 2085.72 3101.67 2084.97 3101.72 2084.81L3102.89 2083.92C3106.45 2081.17 3109.67 2077.13 3112.51 2072.39L2786.35 2083.05C2862.45 2105.36 2949.89 2137.16 2954.99 2139.01L2971.51 2145.04L2958.44 2156.81C2950.6 2163.84 2916.45 2196.41 2874.72 2236.39L2366.73 2271.05L2862.04 2248.53C2858.4 2252.03 2854.69 2255.57 2850.97 2259.15L2893.97 2256.23C2897.31 2253.03 2900.63 2249.81 2903.96 2246.64L2913.75 2246.19C2909.08 2249.41 2904.37 2252.6 2899.69 2255.83L3277.45 2230.05C3277.73 2229.92 3278 2229.76 3278.31 2229.63L3294.96 2228.87L3605.65 2207.67L3606.07 2214.73L3607.24 2214.68L3606.77 2206.19ZM2288.79 2242C2264.17 2217.01 2230.03 2185.28 2196.09 2155.51C2193.79 2159.15 2191.03 2163.01 2187.27 2166.79C2181.36 2172.88 2173.31 2177.52 2165.91 2179.92C2158.35 2182.44 2151.59 2183.25 2145.4 2183.85C2138.17 2184.45 2131.19 2184.47 2124.39 2184.13C2127.11 2192.59 2130.67 2200.55 2134.91 2208.13C2154.03 2210.88 2232.57 2222.91 2288.79 2242ZM2240.61 2320.75C2280.91 2309.45 2319 2292.63 2324.25 2283.97C2323.91 2283.01 2323.27 2281.84 2322.48 2280.55C2297.96 2261.08 2213.37 2242.08 2150.99 2231.97C2164.32 2248.8 2180.53 2264.24 2197.13 2280.09C2212.88 2295.11 2228.79 2310.35 2242.4 2327.12L2240.61 2320.75ZM2056.12 2473.41C2061.68 2469.87 2067.27 2466.41 2072.85 2462.89C2055.44 2458.33 2038.35 2452.31 2022.08 2444.77C2034.89 2454.81 2046.35 2464.6 2056.12 2473.41ZM3141.89 2437.64L3541.27 2238.8L3276.91 2250.81C3252.61 2265.85 3228.27 2280.81 3203.84 2295.59C3134.28 2337.07 3064.28 2377.76 2993.44 2416.96L2962.91 2434.07L2898.87 2439.48L2927.05 2422.99L2979.75 2392.79C3049.77 2352.16 3120.67 2313.03 3191.99 2274.68C3205.92 2267.29 3219.97 2260.07 3233.96 2252.77L2838.89 2270.72C2764.49 2342.12 2683.07 2420.49 2681.64 2421.88L2662.51 2440.32L2665.27 2382.37L2498.11 2464.93L2499.39 2473.36L2478.31 2475.16L2476.49 2463.45C2464.77 2449.63 2405.53 2378.91 2392.15 2345.4C2383.55 2323.95 2357.61 2304.68 2342.11 2294.67C2329.24 2314.17 2283.35 2330.37 2251.76 2339.53C2266.2 2360.12 2276.55 2383.27 2278.65 2411.13C2279.67 2424.49 2275.92 2436.08 2267.51 2445.56C2245.52 2470.48 2196.17 2472.83 2175.08 2473.84C2170.07 2474.08 2164.95 2474.2 2159.8 2474.2C2141.32 2474.2 2122.09 2472.55 2102.84 2469.31C2084.68 2483.47 2066.47 2497.53 2048.23 2511.63L1990.09 2516.55C2005.89 2506.03 2021.75 2495.57 2037.69 2485.28C2000.85 2452.63 1941.95 2407.89 1882.99 2394.04C1839.31 2383.77 1795.55 2381.2 1753.77 2385.89L1753.92 2386.19C1744.91 2390.67 1540.96 2496.24 1657.71 2766.75C1658.07 2766.44 1658.39 2766.11 1658.75 2765.77C1640.76 2665.67 1689.51 2621.01 1721.52 2602.97C1771.8 2574.65 1839.36 2577.59 1871.76 2598C1891.75 2583.75 1911.85 2569.61 1932.09 2555.71C1938.72 2551.17 1945.43 2546.72 1952.08 2542.2L1894.79 2545.76L1954.27 2540.72C1964.97 2533.44 1975.69 2526.12 1986.45 2518.93L2043.36 2515.39C2034.76 2522.05 2026.13 2528.69 2017.51 2535.35L2202.8 2519.65C2207.97 2514.63 2213.07 2509.53 2218.28 2504.53L2427.64 2491.52C2427.92 2494.52 2428.03 2497.53 2428.19 2500.53L2481.51 2496.01L2480.31 2488.25L2501.47 2486.93L2502.6 2494.23L3140.52 2440.15L3141.05 2447.2L3142.59 2447.11L3141.89 2437.64ZM3071.57 2472.65L2870.09 2485.17C2840.27 2501.48 2810.33 2517.57 2780.35 2533.57C2708.81 2571.56 2636.97 2609.01 2563.96 2644.37C2631.8 2599.89 2700.87 2557.52 2770.21 2515.68C2785.39 2506.56 2800.64 2497.57 2815.87 2488.53L2504.71 2507.85L2506.32 2518.32C2508.81 2534.61 2503.44 2571.76 2494.93 2626.56C2489.72 2660.16 2483.23 2701.99 2485.04 2710.17C2486.91 2718.49 2513.19 2731.45 2537.13 2738.72L3071.57 2472.65ZM2140.47 2634.55C2111.13 2666.84 2081.59 2699.33 2055.05 2732.69C2053.41 2734.77 2051.79 2736.89 2050.17 2739.01C2052.87 2738.36 2055.57 2737.69 2058.25 2737C2068.52 2734.32 2078.96 2731.39 2089.33 2728.2C2111.73 2721.36 2134.09 2713.85 2156.4 2706.01C2153.85 2681.72 2148.49 2657.81 2140.47 2634.55ZM1677.51 2748.56C1684.96 2741.89 1692.43 2735.33 1700.01 2728.97C1724.95 2708.13 1750.29 2688.16 1775.83 2668.53C1801.21 2649.2 1826.81 2630.24 1852.61 2611.63C1825.2 2599.79 1772.87 2598.29 1731.89 2621.39C1700.87 2638.85 1668.49 2674.93 1677.51 2748.56ZM2085.37 2905.29C2084.65 2926 2079.72 2946.35 2071.84 2965.36C2071.43 2966.35 2070.91 2967.29 2070.47 2968.28C2089.85 2964.36 2109.93 2958.87 2130.72 2951.4L2132.99 2957.77C2164.08 2909.56 2180.79 2852.72 2180.69 2791.97C2171.67 2795.17 2162.63 2798.47 2153.53 2801.52C2092.37 2822.05 2030.65 2840.68 1968.19 2856.67C1905.72 2872.71 1842.79 2887.09 1778.67 2897.53C1776.45 2897.89 1774.24 2898.2 1772.04 2898.56C1806.91 2926.15 1881.67 2973.44 1986.15 2975.95C1988.77 2970.56 1991.32 2965.11 1993.65 2959.57C2000.85 2942.25 2006.61 2924.31 2010.23 2905.85C2013.84 2887.36 2015.35 2868.51 2012.19 2848.64C2023.75 2865.49 2027.28 2887.19 2026.68 2907.65C2025.95 2928.35 2021.04 2948.69 2013.15 2967.71C2012 2970.45 2010.65 2973.09 2009.4 2975.77C2021.04 2975.29 2033.04 2974.25 2045.36 2972.57C2047.83 2967.51 2050.17 2962.4 2052.37 2957.23C2059.55 2939.89 2065.29 2921.96 2068.91 2903.51C2072.52 2885.01 2074.03 2866.16 2070.88 2846.29C2082.44 2863.13 2085.97 2884.83 2085.37 2905.29ZM2476.85 2605.16C2482.13 2570.45 2487.28 2533.67 2485.43 2521.53L2483.53 2509.19L2428.63 2512.6C2428.84 2525.43 2428.43 2538.32 2427.53 2551.33C2425.72 2574.67 2422.99 2598.23 2414.52 2622.96C2410.03 2635.21 2404.31 2648.36 2392.2 2660.55C2389.13 2663.55 2385.65 2666.4 2381.72 2668.85C2377.91 2671.35 2372.65 2673.53 2370.79 2674.27L2355.12 2680.68C2313.52 2697.4 2271.87 2713.24 2229.72 2728.23C2187.6 2743.23 2145.35 2757.76 2101.83 2770.41C2090.93 2773.53 2079.95 2776.56 2068.64 2779.21C2057.24 2781.81 2046.04 2784.32 2032.63 2785.51C2029.2 2785.77 2025.61 2785.97 2021.09 2785.67C2018.79 2785.51 2016.29 2785.27 2012.91 2784.39C2009.59 2783.25 2004.8 2782.36 1998.69 2775.77C1997.76 2774.49 1999.32 2776.92 1996.36 2772.57L1996.23 2772.33L1996.09 2772.12C1996.25 2772.43 1995.37 2770.84 1995.08 2770.16C1994.25 2768.43 1993.6 2766.28 1993.29 2764.68C1993.11 2763.71 1992.96 2762.72 1992.88 2761.73C1992.72 2759.65 1992.83 2758.63 1992.95 2757.03C1993.05 2755.88 1993.24 2754.76 1993.43 2753.72C1994.28 2749.92 1995.24 2747.77 1996.15 2745.65C1997.95 2741.59 1999.73 2738.63 2001.48 2735.76C2008.52 2724.71 2015.69 2715.89 2023.01 2706.91C2052.28 2671.76 2083.09 2639.65 2114.28 2607.64C2140.88 2580.36 2167.93 2553.63 2195.16 2527.09L2013.59 2538.37C1942.91 2592.92 1872.25 2647.39 1803.19 2703.31C1778.45 2723.28 1754 2743.53 1730.33 2764.29C1718.51 2774.69 1706.73 2785.07 1695.51 2795.73C1684.32 2806.35 1673.35 2817.33 1664.47 2828.17C1662.28 2830.87 1660.25 2833.53 1658.64 2835.99C1658.51 2836.17 1658.39 2836.37 1658.25 2836.57L1658.41 2836.8L1661.4 2841.67C1664.77 2846.87 1667.24 2849.49 1670.8 2851.96C1674.28 2854.33 1678.91 2856.21 1684.55 2857.4C1690.13 2858.6 1696.57 2859.11 1703.31 2859.08C1710.2 2859.04 1716.75 2858.48 1724.59 2857.52C1740.05 2855.68 1755.64 2853.47 1771.2 2851.01C1895.72 2830.63 2019.75 2800.05 2141.24 2763.37C2201.97 2744.88 2262.09 2724.33 2320.53 2700.4C2349.67 2688.35 2378.4 2675.27 2405.53 2659.97C2419.09 2652.35 2432.16 2644 2444.35 2634.95C2456.39 2625.88 2467.76 2615.65 2474.85 2604.07L2476.85 2605.16ZM1655.19 2049.92L1653.71 2050.92C1653.65 2050.99 1652.72 2051.57 1651.83 2052.09C1650.92 2052.6 1650.01 2053.08 1649.39 2053.35C1647.88 2054.01 1646.56 2054.51 1645.44 2054.85C1643.05 2055.6 1641.11 2056.03 1639.23 2056.39C1631.85 2057.69 1625.85 2057.93 1619.8 2058.12C1613.79 2058.27 1607.97 2058.2 1602.23 2058.05C1556.47 2056.37 1512.51 2050.91 1468.31 2045.11C1385.52 2034.03 1303.33 2020.43 1221.36 2005.52C1216.29 2035.85 1213.95 2087.6 1252.64 2101.44C1303.65 2119.68 1546.8 2084.76 1642.09 2068.83L1655.19 2049.92ZM1200.49 2001.73C1190.67 1999.92 1180.87 1998.07 1171.05 1996.23C1168.73 1999.49 1168.21 2002.27 1167.99 2003.65C1165.36 2019.76 1182.45 2043.73 1199.35 2061.48C1195.71 2040.31 1197.71 2018.11 1200.49 2001.73ZM1634.01 2021.15L1634.4 2020.92C1634.32 2020.96 1634.24 2021 1634.16 2021.05C1633.83 2021.23 1633.52 2021.49 1634.01 2021.15ZM2014.91 1666.32C1982.53 1658.08 1950.16 1649.8 1917.79 1641.47L1918.07 1642.75C1916.45 1643.07 1757.77 1675.81 1674.55 1698.92C1619.85 1714.12 1555.67 1820.52 1576.43 1798.05C1690.52 1674.67 1950.68 1702.65 2014.91 1666.32ZM2237.12 3122.77L4343.71 3106.92L2218.99 3144.2C2218.99 3144.2 2017.17 3244.28 1897.15 3244.28C1784.35 3244.28 1679.4 3209.11 1591.99 3148.93L1592.07 3154.11L640.807 3148L1570.43 3133.32C1434.73 3029.95 1346.55 2864.03 1346.55 2677.25C1346.55 2534.49 1398.23 2398.08 1492.08 2293.16C1584.37 2190 1709.23 2126.19 1844.15 2112.91C1846.45 2110.32 1848.77 2107.95 1851.05 2106.08C1858.04 2100.37 1865.45 2096.11 1872.61 2091.97C1879.97 2087.73 1886.93 2083.59 1893.15 2078.23L1695.07 2029.47L1654.39 2088.19L1650.01 2088.93C1638.79 2090.84 1420.13 2127.52 1304.12 2127.52C1278.44 2127.52 1257.79 2125.71 1245.55 2121.35C1225.28 2114.11 1213.04 2100.39 1205.97 2084.24L1200 2091.25C1193.89 2086.08 1140.72 2039.59 1147.15 2000.25C1147.56 1997.75 1148.29 1995.01 1149.43 1992.17C1123.79 1987.29 1098.21 1982.25 1072.63 1977.04L183.133 2017.47L1000.09 1961.73C996.8 1961.03 993.484 1960.39 990.197 1959.65L1111.29 1954.15L1422.05 1932.96L1423.64 1961.09L1264 1968.35C1333.92 1981.65 1403.97 1994.07 1474.03 2005.32C1495.75 2008.68 1517.49 2011.77 1539.16 2014.6C1560.81 2017.41 1582.56 2019.95 1603.76 2021.23C1609.04 2021.51 1614.28 2021.71 1619.31 2021.72C1624.29 2021.75 1629.39 2021.55 1632.95 2021.01C1633.77 2020.89 1634.53 2020.73 1634.79 2020.65C1634.89 2020.63 1634.76 2020.68 1634.76 2020.68L1641.33 2016.56L1655.87 2007.84C1675.29 1996.44 1694.97 1985.88 1714.95 1975.72C1754.87 1955.49 1795.68 1936.88 1838.29 1921.91C1859.63 1914.52 1881.37 1907.87 1904.04 1903.72C1915.36 1901.65 1926.95 1900.19 1938.77 1899.85C1948.93 1899.63 1959.33 1900.25 1969.8 1902.69C1988.04 1888.79 2006.17 1874.43 2023.95 1859.84C2043 1844.17 2061.79 1828.17 2080.05 1811.71C2098.32 1795.21 2116.17 1778.29 2132.77 1760.51C2141.04 1751.6 2149.07 1742.48 2156.27 1733.03C2162.87 1724.36 2168.95 1715.16 2172.65 1706.21C2129.35 1695.32 2086.08 1684.4 2042.79 1673.4L2043.36 1674.37C2031.36 1681.44 1751.48 1844.97 1629.44 1844.97C1627.72 1844.97 1626.03 1844.95 1624.35 1844.88C1605.09 1844.11 1591.24 1840.4 1581.13 1835.28C1565.8 1831.63 1550.88 1826.93 1536.25 1820.47C1525.32 1815.49 1514.59 1809.53 1505.17 1801.28C1495.83 1793.2 1487.69 1781.84 1485.97 1768.67C1485.04 1762.19 1485.67 1755.65 1487.25 1749.63C1488.87 1743.56 1491.28 1738.11 1493.99 1732.77C1499.44 1722.19 1506.29 1712.61 1513.65 1703.64C1528.56 1685.76 1545.53 1669.95 1563.72 1655.88C1546.68 1671.28 1531.05 1688.29 1517.88 1706.84C1511.33 1716.12 1505.49 1725.89 1501.17 1736.13C1496.84 1746.31 1494.11 1757.09 1496.37 1766.84C1498.45 1776.63 1505.15 1784.81 1513.55 1791.07C1521.96 1797.4 1531.92 1802.05 1542.23 1805.79C1547.35 1807.61 1552.57 1809.24 1557.88 1810.68C1556.55 1807.03 1555.8 1803.56 1555.45 1800.49C1551.17 1763.72 1591.71 1714.01 1641.41 1689.33C1630.13 1675.08 1616.99 1661.57 1602.93 1650.53C1586.85 1637.83 1568.51 1628.11 1550.68 1626.88C1541.51 1626.19 1534.33 1627.89 1523.43 1631.23C1513.13 1634.29 1502.65 1637.69 1492.24 1641.09L1429.59 1662.04C1386.17 1676.83 1342.83 1691.81 1299.59 1707.03L1299.23 1693.45L1196.12 1698.87C1270.03 1674.25 1344.19 1650.53 1418.93 1628.44C1440.15 1622.05 1461.49 1616 1482.99 1610.17C1493.72 1607.25 1504.45 1604.36 1515.49 1601.68C1521.05 1600.39 1526.53 1598.91 1533.56 1598.05C1540.28 1597.21 1547.07 1597.32 1553.64 1598.11C1580.23 1601.64 1601.61 1615.64 1619.28 1630.91C1635.99 1645.81 1649.71 1662.37 1661.89 1680.84C1664.23 1680.05 1666.55 1679.23 1668.91 1678.56C1727.11 1662.4 1821.61 1641.63 1874.6 1630.31C1845.77 1622.85 1816.91 1615.4 1788.09 1607.87L1729.68 1592.48L1700.48 1584.68C1690.27 1581.96 1679.92 1578.67 1669.87 1574.75C1649.71 1566.93 1630.24 1556.49 1612.57 1543.27C1612.08 1542.89 1611.61 1542.47 1611.12 1542.11L605.752 1587.79L1844.67 1503.28L1846.28 1531.4L1682.13 1538.88C1682.76 1539.15 1683.4 1539.44 1684.03 1539.71C1692.63 1543.33 1701.39 1546.41 1710.53 1549.12L1739.43 1557.69L1797.27 1574.65C1950 1619.11 2103.17 1662.44 2256.39 1705.29C2257.57 1704.44 2258.69 1703.64 2259.93 1702.77C2262.72 1700.84 2265.51 1699.04 2268.36 1697.29C2274 1693.83 2279.76 1690.67 2285.56 1687.67C2297.15 1681.71 2308.97 1676.47 2320.92 1671.69C2344.83 1662.15 2369.23 1654.45 2393.84 1647.84L2395.95 1654.52C2372.29 1663.31 2349.01 1673.13 2326.72 1684.51C2315.6 1690.2 2304.71 1696.29 2294.32 1702.93C2289.12 1706.27 2284.05 1709.72 2279.2 1713.35C2276.77 1715.16 2274.41 1717.03 2272.17 1718.92C2270 1720.71 2267.48 1722.97 2266.2 1724.4L2261.93 1728.61L2256.04 1727.13C2254.31 1726.71 2252.59 1726.27 2250.87 1725.85C2235.28 1741.91 2220.19 1758.73 2205.35 1775.56C2189.49 1793.75 2174.19 1812.4 2160.05 1831.67C2146.03 1850.91 2132.8 1870.89 2123.39 1891.48C2118.75 1901.64 2115.03 1912.2 2114.35 1921.29C2113.99 1925.77 2114.48 1929.65 2115.63 1932.33C2116.81 1935.04 2118.45 1936.95 2121.41 1938.87C2122.89 1939.8 2124.67 1940.65 2126.69 1941.39L2134.96 1944.24L2152.36 1950.31L2186.81 1962.6C2209.48 1970.51 2232.4 1978.77 2253.19 1980.55C2263.55 1981.37 2272.8 1980.24 2281.37 1976.56C2283.53 1975.65 2285.67 1974.59 2287.75 1973.36C2288.83 1972.77 2289.85 1972.13 2290.87 1971.44L2294.6 1969.01C2299.93 1965.49 2305.44 1962.12 2310.92 1958.95C2333.16 1946.16 2355.53 1935.55 2380.32 1926.73L2380.72 1926.6L2381.65 1926.36C2390.56 1924.07 2400.64 1920.69 2409.92 1917.12C2419.35 1913.49 2428.6 1909.41 2437.55 1904.88C2455.44 1895.76 2472.36 1884.99 2486.73 1871.95C2501.15 1858.97 2512.84 1843.61 2519.76 1826.45C2521.52 1822.17 2522.95 1817.77 2524.09 1813.29C2524.67 1811.07 2525.16 1808.79 2525.57 1806.56C2525.93 1804.44 2526.17 1802.59 2526.31 1800.51C2526.77 1792.43 2525.13 1785.57 2521.19 1780.24C2513.41 1769.24 2494.65 1763.73 2476.05 1763.76C2457.21 1763.96 2437.52 1767.75 2419.23 1775.29C2382.4 1789.63 2349.75 1817.55 2333.87 1857.8C2335.27 1836.25 2343.97 1814.83 2357.45 1796.84C2370.92 1778.75 2389.03 1764.2 2409.12 1753.45C2429.41 1743.23 2451.73 1735.99 2475.51 1735.2C2487.35 1734.79 2499.59 1735.75 2511.85 1739.45C2523.96 1743.28 2536.59 1750.32 2545.45 1762.11C2549.04 1766.75 2551.69 1771.95 2553.56 1777.33C2555.61 1773.53 2557.45 1769.63 2558.91 1765.57C2563.95 1751.49 2565.53 1736.16 2564.52 1720.68C2563.48 1705.21 2560.05 1689.63 2555.15 1674.41C2550.31 1659.41 2543.48 1643.96 2536.2 1630.89L2535.43 1629.53L2534.88 1628C2531.71 1619.01 2523.13 1608.72 2513.63 1599.76C2504.01 1590.61 2493.01 1582.27 2481.76 1574.13C2481.56 1573.97 2481.35 1573.84 2481.12 1573.69L1951.15 1573.71L2486.11 1545.53L2486.29 1552.57H2486.85L2486.11 1524.4L2407.65 1528.53C2358.57 1501.15 2307.39 1476.83 2256.07 1452.84C2203.84 1428.77 2151.2 1405.35 2098.32 1382.32L2090.21 1378.8C2088.52 1378.48 2086.84 1378.21 2085.12 1377.84C2077.87 1376.12 2070.59 1374.37 2061.68 1369.75C2056.97 1367.12 2053.39 1364.28 2050.37 1361.44L1939.4 1313.08C1971.28 1321.47 2002.88 1330.85 2034.29 1340.8C2028.68 1331.87 2024.19 1323.08 2019.85 1314.25C2014.03 1302.19 2008.88 1290.11 2003.97 1278C1994.41 1253.71 1986.04 1229.32 1978.09 1204.85C1962.35 1155.91 1948.16 1106.73 1935.48 1057.2C1923.03 1007.63 1912.17 957.667 1904.07 907.147C1902.29 896.947 1900.76 886.734 1899.31 876.48L1730.23 884.16C1710.76 914.067 1691.23 944.201 1671.01 974.174C1650.53 1004.56 1629.39 1034.73 1605.97 1064.2C1614.28 1027.43 1626.73 992.254 1641.13 958.014C1651.41 933.72 1662.85 909.934 1675.37 886.654L1591.27 890.494C1591.11 890.934 1590.91 891.36 1590.75 891.8C1568.56 950.96 1549.23 1011.4 1538.91 1072.36C1535.48 1093.12 1533.21 1114 1532.91 1134.41L1489.33 1137.37C1490.24 1112.59 1493.77 1088.47 1498.48 1064.88C1510.87 1004.77 1530.85 947.774 1553.39 892.2L817.065 925.667L1560.51 874.96C1561.15 873.534 1561.77 872.107 1562.37 870.667L1599.73 868.96C1599.29 870.107 1598.85 871.241 1598.39 872.374L1686.65 866.36C1686.91 865.894 1687.15 865.427 1687.43 864.987L1744.52 862.387C1744.52 862.387 1744.52 862.4 1744.52 862.414L2056.01 841.174L2057.6 869.294L1924.77 875.321C1927.27 883.787 1929.81 892.24 1932.23 900.734C1946.72 949.374 1960.4 998.121 1974.32 1046.77C1979.11 1063.79 1984.01 1080.77 1988.95 1097.73C1996.83 1090.15 2009.97 1080.52 2024.35 1082.76C2036.84 1084.72 2046.37 1094.67 2052.67 1112.29C2057.49 1125.81 2061.6 1145.81 2066.36 1168.95C2077.76 1224.39 2094.99 1308.43 2130.15 1306.04C2143.53 1305.27 2261.95 1299.17 2291.77 1327.28C2294.32 1329.71 2296.11 1332.17 2297.31 1334.56C2315.77 1332.61 2334.2 1330.48 2352.6 1328.03C2377.49 1324.61 2402.31 1320.59 2426.93 1315.88C2451.6 1311.31 2476.11 1306.08 2500.29 1299.79C2524.39 1293.41 2548.36 1286.44 2571.15 1277.32C2582.48 1272.71 2593.63 1267.71 2603.97 1261.84C2612.65 1256.89 2620.83 1251.16 2627.2 1244.65C2624.32 1235.57 2621.75 1226.59 2619.48 1217.4C2616.77 1206.19 2614.47 1194.83 2612.85 1183.24C2611.27 1171.67 2610.31 1159.85 2610.85 1147.67C2611.16 1142.19 2611.73 1136.51 2612.91 1130.8L2611.87 1131.59C2605.95 1127.24 2597.63 1124.77 2588.45 1123.35C2579.25 1121.93 2569.39 1121.56 2559.43 1121.75C2539.68 1122.16 2518.48 1124.39 2500.35 1128.69C2492.03 1130.72 2485.48 1133.84 2478.33 1139.04C2471.24 1144.2 2464.12 1151.76 2454.84 1159.89C2450.2 1163.93 2444.87 1168.09 2438.79 1171.61C2435.77 1173.39 2432.51 1174.95 2429.23 1176.32C2426.32 1177.55 2421.28 1179.16 2419.25 1179.57C2405.27 1182.93 2393.52 1182.64 2381.72 1182.23C2358.44 1180.95 2336.59 1177.39 2315.21 1173.93C2309.88 1173.09 2304.6 1172.31 2299.39 1171.64L2291.59 1170.76C2288.83 1170.51 2285.43 1170.12 2282.55 1169.61C2270.36 1167.47 2261.57 1164.4 2253.6 1165.59C2251.6 1165.8 2249.39 1166.35 2247.49 1166.93C2244.95 1167.8 2243.63 1168.29 2241.57 1169.44C2237.75 1171.56 2233.93 1174.68 2230.32 1178.12C2223.04 1185.07 2216.44 1193.41 2210.6 1202.25C2204.83 1211.12 2199.51 1220.47 2195.24 1230.31C2191.35 1240.15 2186.87 1250.48 2188.28 1261.43C2186.31 1256.24 2186.28 1250.45 2186.61 1244.91C2187 1239.31 2187.99 1233.77 2189.32 1228.35C2191.99 1217.48 2195.71 1206.84 2200.51 1196.63C2204.93 1187.19 2210.08 1177.97 2216.6 1169.31C2205.71 1173.04 2194.95 1177.23 2184.48 1182.12C2173.63 1187.25 2163.07 1193.08 2153.56 1200.37C2144.23 1207.68 2135.35 1216.6 2131.92 1228.55C2133.57 1216.19 2141.43 1205.37 2150.03 1196.44C2158.81 1187.44 2168.89 1179.83 2179.31 1172.92C2189.76 1166.04 2200.69 1159.88 2211.81 1154.19C2218.6 1150.77 2225.41 1147.59 2232.37 1144.51C2229.95 1140.88 2227.88 1137.24 2225.88 1133.55C2221.89 1126.23 2218.68 1118.76 2215.53 1111.33C2212.55 1103.84 2209.84 1096.32 2207.24 1088.77C2204.83 1081.17 2202.49 1073.61 2200.28 1066C2191.96 1035.45 2185.88 1004.57 2179.93 973.747C2174.24 942.854 2169.31 911.88 2165.09 880.8C2160.95 849.707 2157.39 818.547 2155.2 787.174L2155.61 787.094C2164.63 817.2 2172.97 847.374 2181.25 877.507L2183.47 885.6C2185.44 881.64 2187.36 877.667 2189.16 873.6C2194.53 861.52 2199.32 848.974 2203.79 836.307C2212.68 810.934 2220.32 784.947 2227.39 758.76C2234.43 732.587 2240.87 706.187 2246.87 679.667C2251.65 658.427 2256.12 637.027 2260.31 615.721C2247.19 605.467 2234.29 594.854 2221.64 583.96C2197.43 563.04 2174.56 540.521 2152.44 517.121C2130.39 493.641 2108.73 469.467 2089.43 442.921C2079.72 429.667 2070.47 416.067 2061.84 401.614C2059.81 398.28 2057.81 394.761 2055.87 391.174C2050.72 394.014 2045.55 396.734 2040.4 399.36L2010.83 414.6C2001.07 419.627 1991.63 424.947 1982.45 430.294C1978.71 432.534 1975.08 434.76 1971.49 437.014C1979.93 437.547 1988.59 437.574 1997.4 437.6C2009.67 437.88 2022.19 437.987 2035.52 440C2042.21 441.08 2049.19 442.547 2056.37 445.934C2063.11 449.187 2069.43 453.507 2074.77 458.387C2085.61 468.267 2093.12 480.161 2099.23 491.587C2105.25 503.107 2110.27 514.387 2115.41 524.774C2117.99 529.987 2120.67 534.854 2123.55 539.374C2126.53 544.027 2129.24 547.507 2133.32 552.267C2148.08 569.734 2166.73 585.841 2183.16 606.174C2191.35 616.307 2198.85 627.454 2204.8 639.441C2210.75 651.387 2214.99 664.067 2217.43 677.507C2219.75 690.854 2219.89 704.534 2217.84 717.494C2215.89 730.467 2212.52 742.801 2208.6 754.587C2200.75 778.121 2191.96 800.281 2189.63 824.654L2186.95 824.734C2183.13 799.84 2188.8 774.347 2192.95 750.627C2197.51 726.827 2199.43 703.747 2193.73 682.574C2191.03 672.054 2186.17 661.76 2180.87 652.014C2175.44 642.294 2168.79 633.321 2161.15 624.774C2145.89 607.734 2127.11 591.84 2110.07 572.027C2106.19 567.56 2101.2 561.441 2097.75 555.654C2094.13 549.801 2091.04 543.894 2088.24 538.094C2082.63 526.494 2078.25 515.107 2073.21 504.814C2068.25 494.494 2062.85 485.12 2055.93 478.027C2052.51 474.374 2048.81 471.467 2044.71 469.014C2040.92 466.88 2036.01 465.027 2030.71 463.667C2020.05 460.867 2008.05 459.494 1995.92 457.894C1983.76 456.134 1971.25 454.427 1958.71 451.041C1952.44 449.267 1946.19 446.961 1940.23 443.721C1934.31 440.454 1928.59 436.134 1924.64 430.294C1920.67 424.547 1918.69 417.801 1918.25 411.374C1918.01 404.881 1918.92 398.614 1920.61 392.68C1920.56 404.907 1923.24 417.507 1931.27 424.787C1934.36 427.707 1937.97 429.867 1941.95 431.534C1949.45 422.36 1958.89 414.587 1968.48 408.16C1978.29 401.547 1988.59 396.134 1998.83 391C2002.49 389.2 2006.17 387.52 2009.84 385.827C2002.41 382.16 1994.51 379.32 1986.17 377.227C1970.6 373.147 1954.16 371.441 1937.79 371.307C1921.41 371.334 1905 372.974 1889.33 376.614C1873.81 380.387 1858.72 385.814 1846.89 394.08C1844.04 396.04 1841.03 398.494 1839 400.441C1837.15 402.227 1836.73 402.734 1835.28 404.28C1834.07 405.654 1832.84 407.094 1831.64 408.627C1826.73 414.734 1822 421.64 1817.51 428.68C1810.11 440.147 1803.29 452.24 1796.8 464.48L1759.77 466.467C1760.81 463.987 1761.83 461.467 1762.89 459C1770.27 442.307 1778.56 426.107 1788.15 410.294C1793.03 402.414 1798.15 394.654 1804.17 386.907C1805.71 384.974 1807.29 383.027 1808.96 381.08C1810.47 379.347 1813.04 376.614 1814.36 375.347C1818.73 371.227 1822.68 368.214 1827.09 365.187C1844.53 353.587 1863.32 347.041 1882.16 343.321C1901.03 339.574 1920.04 338.401 1938.88 339.654C1957.75 340.774 1976.51 344.334 1994.56 350.907C2003.56 354.294 2012.36 358.441 2020.68 363.654C2025.77 366.774 2030.71 370.534 2035.23 374.667C2038.84 373.147 2042.45 371.641 2046.07 370.121C2043.8 364.521 2041.72 358.814 2040.16 353.041C2030.11 318.281 2030.73 281.161 2039.72 247.907C2042.29 238.121 2045.49 228.681 2049.11 219.454L957.967 242.414L2295.85 186.067L2296.73 214.227L2091.83 218.547C2087.25 231.28 2083.59 244.161 2081.17 257.134C2076.28 285.147 2077.32 313.107 2086.47 338.467C2088.71 344.814 2091.39 350.987 2094.4 357.041C2095.91 360.054 2097.53 363.04 2099.25 365.96L2101.83 370.214L2104.89 375.027C2112.84 387.294 2121.73 399.454 2131.05 411.227C2149.92 434.734 2169.99 457.787 2191.44 479.76C2212.83 501.8 2235.33 522.894 2257.68 544.334C2301.17 585.814 2345.45 627.16 2387.88 671.347C2399.08 666.494 2410.41 660.974 2421.28 655.094C2434.21 648.067 2446.79 640.454 2458.69 632.08C2470.64 623.694 2481.95 614.561 2492 604.441C2499.33 597.081 2505.99 589.134 2511.41 580.694C2482.25 567.934 2453.57 554.601 2425.15 540.387C2393.24 524.361 2361.72 507.454 2331.13 488.547C2315.85 479.04 2300.81 469.041 2286.33 457.987C2271.92 446.774 2257.71 434.921 2245.91 419.107C2242.97 415.094 2240.24 410.801 2237.99 405.907C2236.87 403.467 2235.88 400.88 2235.12 398.147C2234.73 396.827 2234.37 395.187 2234.13 394.041L2233.51 390.747C2231.83 381.587 2230.57 372.574 2229.69 363.427C2227.96 345.187 2227.56 326.827 2229.23 308.294C2230.11 299.027 2231.51 289.72 2233.96 280.347C2236.57 271.014 2239.8 261.414 2247.05 252.347C2250.67 247.907 2255.73 243.6 2262.15 241.28C2268.56 238.88 2275.59 239.027 2281.35 240.494C2287.2 241.934 2292.11 244.427 2296.55 247.134L2307.77 254.094C2337.71 272.134 2368.95 288.467 2400.83 302.947C2432.76 317.387 2465.51 330.001 2499.01 339.041C2529.93 347.241 2562 352.627 2592.77 350.014C2595.4 298.734 2592.12 247.16 2576.37 199.894C2559.69 149.32 2526.31 105.974 2481.24 78.7604C2458.8 65.0271 2434.03 54.934 2408.23 47.8406C2382.4 40.7206 2355.69 36.174 2328.61 33.6406C2301.56 31.1206 2274.17 30.5071 2246.72 31.2805C2223.04 32.0138 2199.03 33.6937 2175.55 36.5604C2174.92 50.9071 2172.37 66.6937 2169.83 80.9604C2204.31 74.7737 2239.47 71.6406 2274.63 73.3206C2315.39 75.2272 2356.24 84.0271 2393.13 101.694C2430.08 119.187 2462.41 145.561 2487.31 177.374C2512.12 209.214 2530.72 245.84 2540.47 284.68C2529.03 246.334 2508.92 210.867 2483.23 180.721C2457.44 150.601 2424.96 126.547 2388.77 111.321C2352.65 95.9339 2313.33 89.2804 2274.2 89.1604C2237.77 89.0137 2201.43 94.2805 2165.91 102.814C2165.88 102.96 2165.85 103.121 2165.83 103.267L2164.79 103.08C2162.81 103.574 2160.81 104.041 2158.81 104.534C2141.51 125.774 2125.63 148.707 2112.53 172.654L2071.51 174.387C2075.07 168.507 2078.77 162.747 2082.63 157.147C2091.88 143.534 2102.16 130.774 2113.03 118.641C2123.73 106.587 2135.11 95.6138 2147.61 84.9338C2151.28 64.8272 2155.84 39.8806 2154.29 22.6406L2161.25 22.0271L2160.19 17.2539C2216.08 2.82724 2273.4 -2.39943 2331.24 1.32057C2388.72 5.32057 2447.41 19.5604 2498.27 51.2937C2523.57 67.0804 2546.36 87.4806 2564.47 111.454C2582.48 135.507 2595.43 162.907 2603.97 191.107C2612.49 219.347 2616.88 248.454 2617.81 277.347C2618.83 306.24 2617.17 334.987 2613.21 363.241L2611.64 363.094C2604.49 399.4 2596.39 435.254 2586.72 471C2581.83 489.067 2576.51 507.08 2570.19 524.96C2566.97 533.894 2563.59 542.801 2559.53 551.654C2555.37 560.521 2551.12 569.32 2543.76 578.08L2539.13 574.041L2535.84 580.547C2534.77 582.667 2533.55 584.667 2532.33 586.721C2564.43 602.454 2596.83 617.947 2629.31 632.841C2646.45 640.667 2663.65 648.374 2680.91 655.627C2689.53 659.254 2698.19 662.774 2706.81 666C2710.79 667.48 2714.76 668.88 2718.64 670.147C2722.56 656.32 2726.85 642.654 2731.52 629.041C2735.84 615.974 2740.67 603.08 2745.76 590.227C2750.77 577.334 2756.21 564.56 2762.21 551.867C2768.27 539.2 2774.65 526.561 2782.45 513.974C2786.4 507.694 2790.51 501.334 2795.76 494.907C2798.41 491.694 2801.29 488.44 2804.91 485.067C2808.63 481.72 2812.72 478.094 2820.08 474.787C2821.92 473.974 2824.05 473.241 2826.44 472.654C2827.67 472.361 2828.93 472.107 2830.29 471.947L2832.35 471.734L2833.88 471.68C2838.87 471.627 2841.33 472.174 2844.04 472.614C2849.17 473.614 2853.05 474.827 2856.87 476.041C2864.39 478.521 2871.08 481.201 2877.68 483.974C2890.83 489.507 2903.33 495.334 2915.77 501.254C2965.2 525.187 3012.77 550.894 3060.75 575.521C3084.57 588.067 3108.65 600 3132.67 611.414C3144.75 617 3156.85 622.334 3168.95 627.014C3174.97 629.307 3181.05 631.307 3186.97 633.054C3192.84 634.707 3198.88 635.907 3203.35 635.814L3203.76 638.534C3227.04 633.894 3249.96 631.467 3273.35 630.321C3300.16 629.147 3327.11 629.747 3353.87 632.814C3407.32 638.854 3460.48 653.534 3508.73 678.934C3556.93 704.32 3599.63 740.307 3633.23 783.08C3666.92 825.694 3692.93 874.614 3705.64 926.854L3707.28 933.654L3703.85 937.041C3685.79 959.427 3668.17 982.561 3651.17 1005.92C3634.13 1029.31 3617.68 1053.09 3602.17 1077.4C3586.76 1101.71 3572.11 1126.55 3560.13 1152.23C3554.21 1165.07 3548.96 1178.17 3545.71 1191.21C3542.44 1203.71 3541.73 1217.45 3546.55 1224.12C3565.97 1208.43 3586.48 1194.08 3607.97 1181.49C3678.55 1140.25 3757.53 1116.12 3837.2 1103.08L3872.61 1097.28L3845.93 1121.39C3829.35 1142.49 3813.53 1164.8 3800.75 1187.87C3842.92 1176.67 3886.39 1171.03 3930.48 1171.03C4215.95 1171.03 4448.19 1409.59 4448.19 1702.83C4448.19 1996.08 4215.95 2234.65 3930.48 2234.65C3816.25 2234.65 3710.6 2196.39 3624.91 2131.77L3649.85 2208.35L3641.69 2212.41L3606.91 2229.72L3607.24 2235.8L3593.44 2236.44L3142.05 2461.15L3142.59 2468.23L3125.73 2469.28L2539.19 2761.31L2535.29 2760.2C2520.07 2755.95 2470.05 2740.09 2464.41 2714.75C2462.25 2704.95 2465.27 2681.01 2470.93 2643.57C2467.29 2647.19 2463.6 2650.69 2459.81 2654.01C2455.76 2657.53 2451.6 2660.84 2447.41 2664.04C2447.52 2668.47 2447.73 2672.85 2447.73 2677.25C2447.73 2857.85 2365.25 3018.85 2237.12 3122.77ZM2346.03 1707.56C2337.56 1708.48 2329.29 1710.12 2321.16 1712.81C2312.89 1715.41 2305.25 1719.03 2296.55 1724L2296.05 1728.63C2304.71 1735.45 2314.56 1737.52 2323.63 1738.61C2332.85 1739.61 2341.84 1738.93 2350.6 1737.21C2359.36 1735.41 2367.93 1732.76 2376.21 1728.84C2384.43 1724.79 2392.53 1719.89 2399.6 1712.23C2389.79 1708.89 2380.84 1707.61 2371.93 1706.92C2363.12 1706.35 2354.52 1706.69 2346.03 1707.56ZM1739.95 538.721L1737.84 537.427C1703.69 592.067 1672 647.801 1641.85 704.654C1616.21 753.201 1592.07 802.641 1569.99 853.187L1606.93 850.667C1625.28 805.614 1645.39 761.134 1666.67 717.187C1691.15 666.841 1717.16 617.014 1744.68 568.28C1745.59 569.88 1746.68 571.467 1748.03 573.027L1764.51 559.8C1763.41 557.68 1763.25 549.667 1764.95 542.387C1766.4 534.854 1768.89 527 1771.75 519.214C1772.48 517.147 1773.36 515.107 1774.16 513.054L1867.21 510.067L1866 481.921L549.419 552.334L1743.92 514.014C1742.05 521.96 1740.55 530.081 1739.95 538.721ZM1801.37 556.027L1805.04 576.841C1811.67 575.667 1967.85 547.667 2043.99 495.307L2032.03 477.894C1959.67 527.654 1802.96 555.747 1801.37 556.027ZM1757.2 767.054C1734.77 790.707 1716.37 817.147 1699.64 844.347L1759.04 840.294C1769.44 824.494 1779.8 808.72 1789.91 792.894C1799.63 777.96 1809.35 763.12 1819.59 748.6C1829.99 734.12 1840.32 719.934 1854.85 707.307C1845.11 707.667 1835.36 710.614 1826.32 714.56C1817.25 718.534 1808.75 723.547 1800.67 729.054C1784.53 740.107 1770.27 753.187 1757.2 767.054ZM1958.76 652.094C1949.37 659.76 1940.83 668.44 1934.69 679.134C1958.35 674.48 1979.36 670.614 1999.4 669.267C2019.4 667.854 2037.67 669.214 2054.64 674C2071.61 678.747 2087.8 687.067 2104.16 698.707C2120.67 710.241 2136.52 724.974 2155.43 740.187C2153.97 715.934 2145.15 693.014 2130.36 672.8C2115.63 652.774 2093.33 635.934 2067.27 628.814C2041.31 621.454 2013.61 624.147 1990.56 633.56C1978.95 638.28 1968.27 644.507 1958.76 652.094ZM1890.65 758.734C1890.4 760.347 1890.27 761.974 1890.16 763.6C1889.97 766.84 1889.88 770.081 1889.85 773.307C1889.83 779.787 1890.13 786.201 1890.44 792.641C1890.99 805.534 1892.37 818.267 1893.56 831.067C1893.56 831.08 1893.56 831.094 1893.56 831.094L1911.41 829.88C1911.19 829.147 1910.97 828.4 1910.76 827.667L1900.07 791.054C1898.32 784.947 1896.68 778.814 1895.09 772.68C1894.29 769.6 1893.53 766.52 1892.87 763.414C1892.57 761.854 1892.29 760.307 1892.08 758.76C1892 757.254 1891.45 755.48 1892.43 754.267C1891.04 755.227 1891.01 757.227 1890.65 758.734ZM2596.85 2947.71C2609.53 2923.29 2619.28 2897.24 2624.24 2870.11C2626.81 2856.57 2628.03 2842.77 2627.75 2829C2627.28 2815.27 2625.39 2801.4 2620.29 2788.77C2621.37 2815.77 2615.72 2841.35 2608.28 2866.21C2604.25 2878.57 2600.09 2890.84 2594.85 2902.73C2589.88 2914.69 2584.45 2926.47 2578.17 2937.8C2565.96 2960.6 2552.03 2982.51 2535.4 3002.31C2518.67 3022 2499.61 3039.84 2475.92 3052.91C2502.84 3048.17 2527.39 3032.51 2547.35 3013.67C2567.51 2994.63 2583.96 2972.04 2596.85 2947.71ZM2482.16 2927.39C2477.16 2939.33 2471.73 2951.12 2465.49 2962.45C2453.28 2985.25 2439.33 3007.17 2422.68 3026.96C2405.97 3046.67 2386.92 3064.49 2363.2 3077.57C2390.12 3072.81 2414.68 3057.16 2434.65 3038.31C2454.77 3019.29 2471.27 2996.68 2484.13 2972.35C2496.84 2947.93 2506.6 2921.91 2511.52 2894.76C2514.09 2881.24 2515.31 2867.43 2515.05 2853.65C2514.56 2839.92 2512.71 2826.05 2507.61 2813.41C2508.68 2840.44 2503.04 2866 2495.59 2890.87C2491.56 2903.21 2487.37 2915.49 2482.16 2927.39ZM1762.63 2445.25C1740.23 2453.56 1720.61 2468.21 1704.95 2485.89C1689.31 2503.63 1677.37 2524.69 1671.04 2547.43C1664.59 2569.97 1663.81 2594.67 1671.73 2616.2C1672.63 2593.44 1678.05 2572.44 1686.57 2552.95C1695.28 2533.56 1706.87 2515.67 1720.77 2499.88C1734.69 2484.08 1750.99 2470.44 1769.36 2460.24C1787.81 2450.25 1808.57 2444.12 1831.39 2444.79C1810.41 2435.33 1784.69 2436.77 1762.63 2445.25ZM1623.31 2924.16C1634.48 2944.37 1649.57 2962.24 1666.96 2977.4C1684.41 2992.48 1704.43 3004.87 1726.23 3012.69C1747.87 3020.6 1771.52 3023.96 1793.81 3020.04C1771.83 3015.12 1751.69 3007.56 1732.88 2997.6C1714.17 2987.48 1696.81 2975.29 1680.8 2961.43C1664.77 2947.56 1650.09 2932.08 1637.08 2915.21C1630.71 2906.69 1624.6 2897.89 1619.59 2888.45C1614.41 2879.07 1610.16 2869.16 1608.33 2858.03C1605.43 2869.12 1607.16 2881.12 1609.97 2892.23C1613.07 2903.41 1617.61 2914.13 1623.31 2924.16ZM1604.99 2943.39C1596.64 2931.33 1589.16 2918.77 1582.25 2905.85C1575.39 2892.93 1569.12 2879.67 1563.59 2865.97C1557.96 2852.25 1553.23 2838.29 1549.64 2822.81C1544.39 2838.04 1544.91 2854.79 1547.64 2870.52C1550.57 2886.35 1556.11 2901.6 1563.61 2915.79C1571.15 2929.95 1580.72 2943.12 1592.44 2954.29C1604.17 2965.25 1618.29 2974.77 1634.16 2977.77C1622.55 2966.92 1613.4 2955.51 1604.99 2943.39ZM1089.2 2924.64C1082.32 2911.72 1076.05 2898.45 1070.49 2884.76C1064.91 2871.04 1060.17 2857.08 1056.56 2841.6C1051.29 2856.83 1051.84 2873.57 1054.59 2889.31C1057.51 2905.13 1063.01 2920.39 1070.55 2934.56C1078.08 2948.73 1087.67 2961.91 1099.39 2973.08C1111.08 2984.04 1125.21 2993.56 1141.09 2996.56C1129.48 2985.71 1120.33 2974.29 1111.93 2962.17C1103.55 2950.12 1096.11 2937.55 1089.2 2924.64ZM4573.8 1909.45C4566.19 1934.99 4558.36 1959.76 4548.91 1983.8C4539.32 2007.76 4528.51 2030.99 4515.47 2052.77C4502.47 2074.55 4487.32 2094.89 4469.21 2112.44C4451.03 2129.91 4429.69 2144.16 4404.75 2153.64C4431.56 2152.88 4458.12 2141.64 4479.87 2125.03C4501.95 2108.51 4519.69 2086.91 4533.6 2063.6C4547.51 2040.2 4557.81 2014.91 4564.52 1988.88C4571.33 1962.89 4574.87 1936.11 4573.8 1909.45ZM4475.63 1988.83C4489.59 1961.01 4500.79 1932 4511.15 1902.8C4521.2 1873.44 4529.8 1843.95 4537.87 1813.95C4552.99 1753.45 4559.64 1690.87 4556.39 1628.72C4553.16 1566.76 4540.17 1504.56 4512.76 1449.27C4531.96 1507.75 4539.79 1568.6 4539.99 1629.16C4539.81 1659.45 4538.17 1689.71 4534.23 1719.71C4530.48 1749.72 4525.05 1779.52 4517.41 1808.73C4509.85 1838.09 4501.43 1867.6 4492.13 1896.49C4483.11 1925.53 4472.51 1954 4460.67 1981.88C4448.53 2009.63 4434.84 2036.73 4418.03 2061.95C4401.41 2087.24 4381.52 2110.55 4357.81 2130.16C4384.29 2114.36 4407 2092.32 4426.44 2068.04C4445.72 2043.56 4461.88 2016.72 4475.63 1988.83ZM4069 1839.01C4085.53 1836.4 4099.8 1824.37 4109.77 1810.95C4119.83 1797.25 4126.56 1781.55 4130.59 1765.37C4134.59 1749.19 4135.96 1732.36 4134.2 1715.76C4132.25 1699.4 4127.52 1682.08 4115.96 1669.96C4119.44 1685.88 4118.92 1700.92 4117.67 1715.97C4116.29 1730.99 4113.69 1745.79 4110.08 1760.27C4106.47 1774.75 4101.83 1788.92 4095.56 1802.32C4089.24 1815.75 4081.4 1828.33 4069 1839.01ZM3971.23 1792.16C3981.31 1778.48 3988.04 1762.75 3992.07 1746.57C3996.04 1730.4 3997.44 1713.57 3995.68 1696.97C3993.73 1680.61 3989 1663.29 3977.41 1651.17C3980.92 1667.09 3980.4 1682.13 3979.12 1697.19C3977.75 1712.2 3975.15 1727 3971.56 1741.48C3967.92 1755.96 3963.31 1770.13 3957.04 1783.53C3950.72 1796.96 3942.88 1809.56 3930.48 1820.23C3947.01 1817.61 3961.28 1805.59 3971.23 1792.16ZM4026.83 1595.88C4035.69 1606.56 4041.83 1619.27 4046.6 1632.35C4051.05 1645.55 4054.45 1659.2 4056.15 1673.19C4058.04 1687.11 4058.89 1701.19 4058.37 1715.37C4057.63 1743.48 4053.36 1771.88 4044.08 1798.51C4039.33 1811.73 4033.51 1824.69 4025.28 1836C4017.24 1847.24 4006.36 1857.25 3991.49 1859.75C3998.89 1860.96 4006.83 1859.41 4013.92 1856.19C4021.07 1852.99 4027.4 1848.15 4033.07 1842.84C4044.24 1831.91 4052.76 1818.71 4059.31 1804.83C4072.41 1776.95 4078.83 1746.43 4079.48 1715.77C4079.89 1685.32 4075.21 1654.05 4061.73 1625.99C4055.08 1612 4046.01 1598.85 4034.13 1588.59C4022.36 1578.49 4006.51 1571.59 3991.49 1574.11C4006.33 1576.44 4018.17 1585.12 4026.83 1595.88ZM1165.47 1721.61H1129.35C1127.24 1722.36 1125.11 1723.12 1123 1723.87L764.237 1742.76H1069.56C1017.92 1761.25 966.481 1780.6 915.544 1802.15C894.896 1810.91 874.357 1819.97 853.789 1830.29C843.492 1835.53 833.251 1840.92 822.625 1847.79C817.255 1851.37 811.972 1854.83 805.563 1861.2C803.945 1862.83 802.167 1864.85 800.331 1867.48C798.415 1870.57 796.224 1873.59 794.828 1880.41C794.252 1883.8 794.088 1887.8 795.128 1892.11C796.031 1896.16 798.251 1900.39 800.305 1902.95C804.685 1908.56 809.424 1910.91 811.56 1912.05C818.899 1915.68 824.377 1917.48 830.156 1919.49C835.823 1921.39 841.357 1923.09 846.86 1924.71C857.841 1927.93 868.713 1930.85 879.585 1933.68C895.745 1937.85 911.849 1941.73 927.979 1945.52L1093.72 1934.23C1047.44 1924.44 1001.26 1914.32 955.255 1903.84C933.867 1898.81 912.531 1893.64 891.472 1888.11C881.257 1885.41 871.096 1882.61 861.156 1879.67C865.675 1877.13 870.357 1874.65 875.068 1872.24C893.992 1862.61 913.847 1853.68 933.867 1845.07C1014.33 1811.01 1097 1779.89 1179.88 1749.92C1186.51 1747.49 1193.16 1745.16 1199.79 1742.76H1299.96L1299.23 1714.57L1165.47 1721.61ZM1162.27 2671.56C1162.68 2683.89 1163.41 2696.23 1164.56 2708.56C1166.35 2729.27 1169.72 2749.84 1173.63 2770.32C1177.8 2790.76 1183.24 2810.95 1189.49 2830.89C1192.88 2840.89 1196.17 2850.45 1200.36 2860.57C1204.57 2870.47 1209.27 2879.99 1214.52 2889.19C1225.17 2907.41 1236.97 2924.89 1250.61 2940.88C1264.05 2957.01 1279.07 2971.89 1295.8 2984.69C1312.59 2997.08 1331.63 3008.21 1352.4 3010.65C1332.93 3003.63 1316.92 2990.84 1302.56 2976.8C1288.13 2962.79 1275.43 2947.07 1263.63 2930.77C1252.09 2914.31 1241.13 2897.39 1232.07 2879.59C1227.51 2870.72 1223.09 2861.81 1219.45 2852.71C1215.92 2843.79 1212.65 2833.84 1209.59 2824.36C1203.16 2805.21 1197.81 2785.71 1193.13 2766.01C1188.2 2746.36 1184.51 2726.41 1180.87 2706.39C1178.89 2694.87 1177.16 2683.27 1175.57 2671.64L1303.2 2672.55L1303 2644.37L1172.37 2647.13C1169.85 2626.39 1167.75 2605.51 1165.75 2584.49C1163.28 2605.33 1162.01 2626.32 1161.88 2647.35L302.864 2665.51L1162.27 2671.56ZM1281.75 2475.32L0 2510.55L1282.21 2503.49L1281.75 2475.32ZM2014.99 101.521L676.191 129.707L2014.08 73.374L2014.99 101.521Z" fill="#FF735C"/>
</svg>
