<svg width="250" height="350" viewBox="0 0 250 350" fill="none" xmlns="http://www.w3.org/2000/svg">
<path d="M86.8408 250.845C88.4229 250.845 89.7045 256.1 89.7045 262.583C89.7045 269.066 88.4229 274.321 86.8408 274.321C85.2602 274.321 83.9777 269.066 83.9777 262.583C83.9777 256.1 85.2602 250.845 86.8408 250.845ZM53.0021 289.067C53.0064 289.129 53.0112 289.191 53.015 289.253L52.9988 289.068L53.0021 289.067ZM91.6366 246.013C93.2596 243.66 100.232 233.877 102.153 229.095C104.075 224.313 108.467 235.558 103.489 241.081C98.5101 246.604 93.7044 249.071 92.8857 249.662C92.068 250.254 90.0769 248.272 91.6366 246.013ZM89.6273 241.574C90.986 239.176 97.8277 222.636 99.6817 216.225C101.536 209.814 103.32 221.035 101.172 226.854C99.0245 232.674 92.4928 240.883 90.5231 243.054C88.5538 245.224 89.062 242.572 89.6273 241.574ZM94.8983 200.741C98.6073 202.614 98.4125 209.222 98.4125 209.222C98.4125 209.222 95.3374 231.514 87.3576 238.714C90.2126 235.952 95.6798 219.677 94.8983 200.741ZM88.0657 234.078C91.0917 224.511 89.6273 202.909 88.0657 199.26C88.0657 199.26 90.3102 196.03 92.751 197.485C93.6296 214.352 91.9704 228.16 88.0657 234.078ZM81.8179 214.352C81.8179 214.352 84.9421 199.852 86.1131 202.121C87.2842 204.39 87.9681 224.708 86.6013 234.867C86.797 228.061 83.3795 215.634 81.8179 214.352ZM76.6445 266.627C76.0592 266.035 77.4256 243.054 77.4256 243.054C78.0109 241.672 81.6222 246.21 82.6099 247.69C83.5972 249.169 82.3061 260.117 82.5985 261.301C82.8914 262.484 77.2294 267.219 76.6445 266.627ZM78.0599 293.949L76.6445 270.572C76.6445 270.572 81.135 267.81 82.2542 268.008C83.3748 268.205 83.6734 276.589 83.9191 280.14C84.1648 283.69 79.8663 292.666 78.0599 293.949ZM78.0599 238.393C78.1328 235.36 79.963 217.902 80.9878 218.05C82.0132 218.198 82.8914 219.826 83.9162 244.977C84.0558 248.39 78.4252 238.615 78.0599 238.393ZM93.8244 272.299C95.5579 273.901 103.611 280.706 104.27 287.069C104.27 287.069 102.637 298.831 101.83 302.184C101.121 293.061 94.7545 279.725 91.8232 275.75C90.115 273.433 90.5807 269.297 93.8244 272.299ZM92.4095 280.633C96.7042 287.734 100.853 303.516 100.658 305.242C100.463 306.968 98.7054 315.45 96.2646 317.916C97.1433 310.519 95.997 294.096 90.5788 282.605C89.3744 280.05 88.1143 273.532 92.4095 280.633ZM86.918 280.633C95.2893 290.004 94.8983 320.974 94.8983 320.974C94.8983 320.974 93.6291 323.933 90.8503 325.018C93.8315 310.815 89.5216 284.578 86.918 280.633ZM87.5771 286.847C91.5794 307.166 88.1624 323.637 88.1624 323.637C88.1624 323.637 85.234 322.355 82.989 316.141C88.0657 310.223 87.7724 290.496 87.5771 286.847ZM81.9646 312.196C80.4511 307.166 78.8895 297.006 78.8895 297.006C81.4274 295.33 84.7468 286.551 85.0392 283.888C86.1131 290.693 86.0155 307.856 81.9646 312.196ZM105.249 243.054V261.301C105.249 261.301 99.1959 260.142 94.3154 258.86C89.4349 257.577 91.1917 254.298 94.9369 252.177C100.289 249.148 105.249 243.054 105.249 243.054ZM150.368 159.213C147.215 166.21 142.335 171.543 136.874 174.109C125.446 179.48 112.762 168.891 103.977 171.84C100.153 173.124 97.6629 174.61 96.3675 176.739C95.6303 177.95 95.2826 179.373 95.3022 181.087C93.5348 178.163 91.6942 175.961 89.8497 174.704C89.3492 174.363 88.6777 174.058 87.8543 173.787C87.4114 166.378 88.6224 160.241 91.3646 154.96C97.129 143.862 109.648 136.536 127.77 129.09C158.617 116.415 159.349 106.059 161.35 89.2426C161.905 91.3088 162.699 92.9622 162.717 93.9761C163.156 118.635 158.909 120.706 142.165 133.73C136.245 138.335 131.103 144.107 126.767 150.176C125.108 152.499 125.423 158.844 127.295 160.468C129.373 162.274 135.133 162.015 137.691 160.407C151.028 152.015 147.221 140.87 163.621 138.503C153.297 144.187 152.574 154.314 150.368 159.213ZM106.61 259.542C106.468 267.507 105.996 275.244 105.257 282.428C105.823 275.327 105.246 264.735 105.246 264.735C105.246 264.735 102.61 263.758 96.558 262.87C92.9281 262.338 89.0415 264.354 92.9462 268.102C96.849 271.849 103.58 279.833 105.244 282.599C105.246 282.575 105.248 282.55 105.251 282.526C105.248 282.552 105.246 282.376 105.244 282.4C102.523 308.709 96.2165 327.865 89.4273 327.865H89.3644C80.6802 327.865 73.9033 296.129 74.5672 258.764C75.2268 221.554 83.0957 190.242 91.7489 190.242H91.8113C100.496 190.242 107.272 222.176 106.61 259.542ZM76.0788 348.323L75.1273 347.803L75.172 347.725L76.0897 348.322L76.1559 348.365L76.0788 348.323ZM64.7429 174.775L64.6957 174.698L65.711 174.109L64.7429 174.775ZM63.5113 175.59C63.2246 175.794 62.7726 176.06 62.2335 176.475C62.1154 176.563 61.9907 176.659 61.8626 176.758L62.0783 176.991L60.4476 178.652L60.0943 178.271L61.2696 177.233C60.3124 178.024 59.1589 179.087 57.9098 180.467C56.2096 182.352 54.3756 184.856 52.6311 187.94C50.8748 191.017 49.2308 194.679 47.7516 198.787C47.1887 200.344 46.6519 201.969 46.1443 203.65L46.7996 201.627L48.5817 202.176L47.9521 204.429L46.0847 203.853C45.7509 204.97 45.4285 206.112 45.1204 207.277L47.0944 207.778L46.5648 210.055L44.546 209.543C44.3217 210.467 44.1012 211.402 43.8931 212.352C43.8469 212.566 43.8045 212.79 43.7583 213.005L45.8542 213.442L45.419 215.74L43.2835 215.295C43.0544 216.441 42.8373 217.604 42.6287 218.781L44.8398 219.157L44.4865 221.47L42.2348 221.087C42.0448 222.242 41.8633 223.408 41.6933 224.588L44.0031 224.905L43.7121 227.225L41.3728 226.905C41.3295 227.235 41.28 227.558 41.2376 227.89C41.1314 228.725 41.039 229.573 40.9413 230.417L43.3316 230.675L43.1063 233.003L40.6832 232.742C40.5623 233.909 40.4446 235.081 40.3403 236.264L42.8173 236.466L42.6511 238.799L40.1551 238.596C40.0627 239.767 39.9784 240.942 39.9027 242.124L42.431 242.27L42.3058 244.607L39.7565 244.459C39.6922 245.632 39.6398 246.81 39.5903 247.99L42.1572 248.083L42.081 250.421L39.5017 250.327C39.4617 251.503 39.4255 252.679 39.3998 253.859L42.0034 253.901L41.9729 256.24L39.3626 256.199C39.3464 257.375 39.3374 258.551 39.335 259.729L41.9615 259.728L41.8276 262.065L39.0516 262.074V262.116C39.0516 263.277 39.1993 264.437 39.2074 265.597L41.9143 265.56L41.9748 267.9L39.3531 267.937C39.3669 269.114 39.3921 270.29 39.4145 271.463L42.0643 271.391L42.1219 273.731L39.4755 273.803C39.5041 274.982 39.5407 276.157 39.5784 277.331L42.231 277.219L42.3201 279.557L39.6588 279.67C39.705 280.851 39.7593 282.025 39.816 283.198L42.4787 283.041L42.5929 285.378L39.9408 285.535C40.007 286.717 40.077 287.895 40.1551 289.064L42.7953 288.856L42.9558 291.191L40.3199 291.399C40.4465 293.082 40.5827 294.756 40.7409 296.405C41.2709 301.853 41.9224 307.106 42.772 312.048C43.6283 316.986 44.6979 321.609 45.9609 325.792C47.2196 329.975 48.7217 333.699 50.3385 336.85C51.9572 340.001 53.7308 342.553 55.419 344.449C57.1087 346.347 58.6698 347.607 59.7657 348.41C60.0728 348.629 60.3457 348.804 60.5805 348.952C60.7686 349.071 60.9348 349.173 61.0644 349.261C61.3606 349.451 61.5135 349.549 61.5135 349.549C61.5135 349.549 61.3582 349.455 61.0558 349.275C60.9115 349.184 60.7272 349.079 60.5129 348.951C60.2852 348.817 60.0224 348.657 59.7304 348.463C58.6113 347.688 56.9921 346.484 55.2509 344.604C53.5065 342.734 51.6596 340.199 49.9537 337.059C48.2483 333.919 46.6448 330.194 45.3323 325.992C44.0017 321.796 42.8601 317.157 41.9319 312.202C41.009 307.246 40.267 301.977 39.7298 296.506C38.6459 285.563 38.2173 273.835 38.1611 262.124C38.1511 250.396 38.7926 238.663 40.2318 227.756C40.9314 222.301 41.9153 217.067 43.0644 212.158C44.2103 207.249 45.5837 202.673 47.1363 198.556C47.8959 196.491 48.7364 194.555 49.578 192.736C50.4566 190.935 51.3315 189.246 52.2573 187.718C54.0856 184.649 55.9896 182.169 57.744 180.311C59.4971 178.448 61.0829 177.205 62.1988 176.422C62.7512 176.022 63.2098 175.772 63.5027 175.577C63.7999 175.389 63.9542 175.293 63.9542 175.293C63.9542 175.293 63.8027 175.394 63.5113 175.59ZM56.9101 183.214L56.2096 182.675L57.6693 180.856L58.2536 181.307L56.9101 183.214ZM53.9989 188.197L52.9697 187.594L54.1832 185.602L55.108 186.144L53.9989 188.197ZM47.9911 198.273L48.8422 196.096L50.3671 196.67L49.6046 198.879L47.9911 198.273ZM49.5913 328.806L50.4033 330.999L49.125 331.519L48.2073 329.368L49.5913 328.806ZM47.8678 323.283L48.5169 325.531L46.9582 326.026L46.2186 323.808L47.8678 323.283ZM46.4995 317.653L47.0144 319.936L45.1985 320.394L44.5912 318.135L46.4995 317.653ZM45.387 311.96L45.8076 314.261L43.7683 314.674L43.2811 312.385L45.387 311.96ZM44.5012 306.22L44.8327 308.537L42.6101 308.897L42.21 306.591L44.5012 306.22ZM40.9104 297.25L40.6561 294.923L43.2306 294.661L43.4421 296.992L40.9104 297.25ZM43.7997 300.45L44.0641 302.775L41.6605 303.086L41.3371 300.769L43.7997 300.45ZM51.6043 193.454L50.2552 192.827L51.2719 190.727L52.5178 191.305L51.6043 193.454ZM51.741 334.168L52.7688 336.266L51.8182 336.773L50.6843 334.733L51.741 334.168ZM54.4704 339.249L55.7714 341.19L55.1719 341.629L53.7531 339.774L54.4704 339.249ZM57.9288 343.868L59.5637 345.53L59.3204 345.791L57.574 344.251L57.9288 343.868ZM43.5178 346.026L43.8716 345.643L45.5061 347.305L45.2632 347.567L43.5178 346.026ZM39.6965 341.55L40.4142 341.024L41.7138 342.965L41.1152 343.404L39.6965 341.55ZM35.5341 330.582L36.3461 332.774L35.0674 333.294L34.1507 331.144L35.5341 330.582ZM33.8106 325.059L34.4607 327.306L32.902 327.801L32.1614 325.584L33.8106 325.059ZM32.4429 319.429L32.9572 321.711L31.1413 322.169L30.5341 319.911L32.4429 319.429ZM31.3304 313.735L31.7509 316.037L29.7116 316.45L29.224 314.161L31.3304 313.735ZM30.4436 307.995L30.776 310.313L28.5534 310.673L28.1529 308.367L30.4436 307.995ZM31.7971 215.217L31.3623 217.516L29.0987 217.044L29.6007 214.759L31.7971 215.217ZM33.0377 209.554L32.5076 211.83L30.4322 211.304L31.0284 209.043L33.0377 209.554ZM33.9349 200.048L34.7855 197.872L36.3104 198.445L35.5475 200.655L33.9349 200.048ZM34.5245 203.952L33.8954 206.204L32.0223 205.627L32.7429 203.403L34.5245 203.952ZM29.9464 226.68L29.6554 229L27.0995 228.65L27.4304 226.336L29.9464 226.68ZM27.9872 222.829L28.4034 220.528L30.7832 220.932L30.4298 223.245L27.9872 222.829ZM37.6848 335.943L38.7121 338.042L37.7615 338.549L36.6271 336.508L37.6848 335.943ZM37.5472 195.229L36.198 194.603L37.2153 192.502L38.4606 193.081L37.5472 195.229ZM41.0509 187.919L39.9417 189.973L38.913 189.369L40.1265 187.376L41.0509 187.919ZM44.1969 183.082L42.8539 184.988L42.1524 184.45L43.6121 182.633L44.1969 183.082ZM48.0221 178.767L46.3905 180.428L46.0371 180.048L47.7801 178.506L48.0221 178.767ZM46.9991 349.275C46.7015 349.089 46.24 348.841 45.6733 348.463C45.6514 348.447 45.6256 348.429 45.6033 348.413C44.4865 347.637 42.9001 346.447 41.1938 344.604C39.4498 342.734 37.6024 340.199 35.897 337.059C34.1916 333.919 32.5876 330.194 31.2756 325.992C29.9455 321.796 28.8044 317.157 27.8743 312.202C26.9518 307.246 26.2098 301.976 25.6731 296.506C24.5892 285.563 24.1615 273.835 24.1039 262.124C24.0939 250.396 24.7364 238.663 26.1755 227.756C26.8747 222.301 27.8581 217.067 29.0073 212.158C30.155 207.249 31.5271 202.673 33.0791 198.556C33.8392 196.491 34.6793 194.555 35.5217 192.736C36.3995 190.935 37.2748 189.246 38.2006 187.718C40.0284 184.649 41.9324 182.169 43.6878 180.311C45.4399 178.448 47.0263 177.205 48.1421 176.422C48.6941 176.022 49.1531 175.772 49.446 175.577C49.7437 175.389 49.897 175.293 49.897 175.293C49.897 175.293 49.7461 175.394 49.4541 175.59C49.1679 175.794 48.716 176.06 48.1764 176.475C47.0858 177.285 45.5575 178.583 43.8531 180.467C42.1519 182.352 40.3189 184.856 38.5744 187.94C36.8176 191.017 35.1746 194.679 33.6954 198.787C32.2105 202.894 30.9094 207.458 29.8369 212.352C28.7582 217.246 27.8733 222.463 27.1809 227.89C27.0004 229.303 26.8356 230.732 26.6827 232.171L29.2744 232.45L29.0492 234.779L26.4546 234.499C26.3427 235.668 26.2384 236.844 26.1432 238.028L28.7601 238.241L28.5944 240.576L25.9574 240.36C25.8736 241.531 25.8031 242.711 25.735 243.892L28.3743 244.045L28.2496 246.382L25.6141 246.23C25.5569 247.404 25.5041 248.581 25.4621 249.764L28.101 249.858L28.0243 252.196L25.3897 252.101C25.3578 253.277 25.3331 254.455 25.315 255.634L27.9462 255.676L27.9162 258.016L25.2816 257.974C25.2712 259.15 25.2707 260.327 25.2755 261.504L27.9043 261.503L27.9105 263.84L25.2826 263.849C25.2869 265.024 25.2945 266.199 25.3069 267.372L27.9276 267.335L27.9529 269.676L25.3374 269.712C25.3555 270.89 25.3793 272.064 25.4069 273.238L28.0119 273.167L28.0672 275.507L25.4636 275.577C25.4979 276.756 25.5364 277.931 25.5812 279.104L28.1738 278.994L28.2634 281.333L25.6807 281.442C25.7326 282.622 25.7893 283.798 25.8522 284.968L28.422 284.816L28.5367 287.154L25.9846 287.304C26.057 288.487 26.1379 289.661 26.2232 290.829L28.7387 290.632L28.8987 292.966L26.4032 293.164C26.4913 294.249 26.5823 295.334 26.6842 296.405C26.6932 296.5 26.7042 296.592 26.7132 296.687L29.1735 296.436L29.3849 298.767L26.9556 299.015C27.0818 300.199 27.2157 301.372 27.3557 302.534L29.7431 302.226L30.0069 304.55L27.6409 304.857C27.9619 307.313 28.3148 309.717 28.7158 312.048C29.5711 316.986 30.6412 321.609 31.9042 325.792C33.1625 329.975 34.665 333.698 36.2813 336.85C37.9006 340.001 39.6736 342.553 41.3619 344.449C43.053 346.347 44.6127 347.607 45.7085 348.41C45.7142 348.413 45.7195 348.416 45.7247 348.42C46.2709 348.809 46.7181 349.067 47.0072 349.261C47.3034 349.451 47.4573 349.549 47.4573 349.549C47.4573 349.549 47.301 349.455 46.9991 349.275ZM34.1573 346.994C34.1573 346.994 33.7063 346.616 33.2539 346.237C32.8262 345.841 32.3981 345.444 32.3981 345.444L32.7615 345.069C32.7615 345.069 33.1629 345.493 33.5644 345.916C33.9763 346.319 34.3888 346.722 34.3888 346.722L34.1573 346.994ZM30.005 342.835C30.005 342.835 29.6359 342.37 29.2678 341.904C28.9206 341.434 28.5725 340.966 28.5725 340.966L29.2992 340.451C29.2992 340.451 29.6169 340.942 29.934 341.432C30.2612 341.905 30.5889 342.376 30.5889 342.376L30.005 342.835ZM26.6389 337.968L25.5026 335.924L26.5604 335.359L27.59 337.46L26.6389 337.968ZM23.9406 332.707L23.0224 330.554L24.4073 329.99L25.2197 332.187L23.9406 332.707ZM21.0307 324.985L22.6823 324.46L23.3319 326.71L21.7713 327.207L21.0307 324.985ZM20.0092 321.566L19.402 319.304L21.3122 318.822L21.8275 321.107L20.0092 321.566ZM18.0904 313.546L20.1987 313.121L20.6197 315.426L18.5786 315.838L18.0904 313.546ZM17.4194 310.052L17.0194 307.744L19.3115 307.373L19.6444 309.693L17.4194 310.052ZM24.6425 193.765L25.7055 191.681L26.9375 192.283L25.9784 194.419L24.6425 193.765ZM28.7634 186.625L29.6707 187.194L28.4977 189.216L27.4876 188.583L28.7634 186.625ZM31.6404 182.863C32.0271 182.426 32.4129 181.989 32.4129 181.989L32.9758 182.466C32.9758 182.466 32.6172 182.926 32.2586 183.387C31.918 183.851 31.578 184.314 31.578 184.314L30.8813 183.773C30.8813 183.773 31.2608 183.318 31.6404 182.863ZM35.7813 178.702L36.6804 177.962L36.9133 178.228C36.9133 178.228 36.4923 178.632 36.0718 179.036C35.6656 179.447 35.2603 179.857 35.2603 179.857L34.9017 179.484C34.9017 179.484 35.3413 179.092 35.7813 178.702ZM40.5261 175.293L39.5769 175.988L39.5279 175.914L40.5261 175.293ZM51.6544 175.884L50.6857 176.549L50.6385 176.474L51.6544 175.884ZM78.5966 174.109L77.6284 174.775L77.5818 174.698L78.5966 174.109ZM72.2065 345.791L70.4596 344.251L70.8149 343.868L72.4484 345.53L72.2065 345.791ZM68.058 341.629L66.6388 339.774L67.356 339.249L68.6561 341.19L68.058 341.629ZM64.7038 336.773L63.5699 334.733L64.6266 334.168L65.6544 336.266L64.7038 336.773ZM62.0102 331.519L61.0929 329.368L62.4764 328.806L63.2884 330.999L62.0102 331.519ZM59.1037 323.808L60.7534 323.283L61.4025 325.531L59.8438 326.026L59.1037 323.808ZM58.0841 320.394L57.4764 318.135L59.3852 317.653L59.9004 319.936L58.0841 320.394ZM56.1658 312.385L58.2731 311.96L58.6932 314.261L56.6539 314.674L56.1658 312.385ZM55.4957 308.897L55.0952 306.591L57.3859 306.22L57.7183 308.537L55.4957 308.897ZM54.2222 300.769L56.6858 300.45L56.9487 302.775L54.5456 303.086L54.2222 300.769ZM53.5417 294.923L56.1153 294.661L56.3277 296.992L53.7951 297.25L53.5417 294.923ZM62.2864 347.725L63.2703 348.365L62.2416 347.803L62.2864 347.725ZM212.823 72.0782C223.472 52.0652 210.004 30.9179 250 0C216.725 11.4626 215.163 18.7619 199.349 48.7459C188.956 68.4524 160.376 82.5756 125.29 82.7868C127.534 78.0831 129.175 72.9347 132.166 68.7801C136.703 62.4788 142.898 57.3439 147.089 50.8554C154.049 40.0795 152.85 24.8919 144.911 15.2352C145.984 27.8802 140.422 37.4339 133.256 46.1849C122.792 58.9622 115.315 63.7487 105.047 70.5884C91.918 79.3342 86.6889 90.6597 84.5244 106.243C83.9496 110.387 82.9271 115.876 77.2294 114.436C71.7631 113.055 72.6418 102.008 76.1683 91.7178C79.8201 81.0627 91.9704 68.4726 86.4055 50.4233C84.2225 71.0855 71.9617 73.4347 60.9277 91.5528C54.6813 101.811 53.4807 107.509 51.9468 120.354C49.7875 138.439 54.2156 157.398 63.436 172.387C48.7279 172.93 32.5948 174.707 28.7906 175.502L28.6949 175.522L28.6106 175.573C28.27 175.777 27.9319 175.993 27.5952 176.216L27.8005 176.566C27.4871 176.753 27.1776 176.949 26.8699 177.155L26.6732 176.854C25.7888 177.49 24.9207 178.191 24.072 178.953L24.2515 179.163C23.7086 179.637 23.1657 180.149 22.6371 180.685L22.4537 180.501C21.6832 181.286 20.9283 182.121 20.1906 183.009L20.4083 183.189C19.9497 183.757 19.4906 184.359 19.0439 184.98L18.7853 184.789C18.1157 185.68 17.4618 186.616 16.8227 187.591L17.167 187.807C16.7793 188.438 16.3936 189.098 16.0188 189.771L15.6049 189.535C15.0249 190.502 14.4582 191.506 13.9048 192.543L14.4396 192.808C14.1115 193.485 13.789 194.177 13.4733 194.886L12.8494 194.601C12.346 195.623 11.8536 196.673 11.3759 197.754L12.1432 198.062C11.866 198.767 11.5945 199.484 11.3288 200.216L10.4649 199.895C10.0282 200.956 9.60242 202.04 9.19095 203.152L10.2077 203.488C9.97436 204.21 9.74576 204.946 9.52193 205.693L8.4061 205.352C8.02892 206.441 7.66269 207.551 7.30837 208.684L8.4823 209.004L8.57898 209.03C8.38229 209.768 8.18989 210.517 8.00225 211.274L7.81033 211.226L6.63354 210.927C6.3097 212.039 5.99681 213.169 5.69487 214.317L6.87213 214.582L7.21217 214.659C7.04787 215.406 6.88785 216.162 6.73165 216.928L6.2935 216.837L5.11672 216.593C4.84098 217.72 4.57666 218.864 4.3214 220.024L5.49628 220.241L6.07491 220.347C5.93775 221.102 5.80583 221.866 5.67725 222.636L5.00099 222.521L3.83373 222.322C3.60085 223.462 3.37844 224.617 3.16556 225.785L4.33283 225.96L5.13862 226.081C5.02718 226.842 4.91955 227.609 4.81621 228.383L3.93564 228.263L2.76076 228.102C2.56788 229.252 2.38453 230.415 2.21118 231.589L3.38654 231.728L4.38283 231.846C4.29425 232.611 4.20948 233.383 4.12757 234.16L3.0565 234.045L1.88353 233.92C1.72827 235.075 1.58159 236.244 1.44491 237.423L2.61694 237.53L3.79182 237.635C3.72372 238.404 3.658 239.178 3.59656 239.958L2.35596 239.858L1.18679 239.763C1.06535 240.925 0.954385 242.098 0.851041 243.279L2.02211 243.356L3.34749 243.443C3.29796 244.213 3.25129 244.989 3.2089 245.769L1.8359 245.692L0.659593 245.627C0.571012 246.793 0.492432 247.967 0.421949 249.15L1.59778 249.201L3.04031 249.262C3.00841 250.034 2.97983 250.81 2.95316 251.592L1.46348 251.542L0.292886 251.503C0.235737 252.671 0.188113 253.848 0.148585 255.032L1.32204 255.057L2.86029 255.088C2.84362 255.861 2.83077 256.639 2.82124 257.421L1.25918 257.401L0.0809598 257.23C0.0538142 258.364 0.0366706 259.535 0.0261933 260.497H1.20393H2.85744V261.556L2.86934 263.255L1.16631 263.264C1.16631 263.333 1.17536 263.4 1.17536 263.469C1.17536 263.4 1.17488 263.333 1.17488 263.264L0 263.269V263.472C0 264.595 0.0200035 265.696 0.0304807 266.796L1.20536 266.782L2.82982 266.761C2.83886 267.543 2.85077 268.322 2.86458 269.098L1.23775 269.127L0.0671492 269.148C0.0857225 270.335 0.107156 271.516 0.13573 272.675L1.30633 272.645L2.94078 272.601C2.96126 273.383 2.98364 274.162 3.0084 274.936L1.373 274.989L0.203831 275.027C0.241454 276.219 0.28479 277.393 0.333366 278.554L1.50158 278.505L3.13556 278.437C3.16794 279.218 3.20176 279.996 3.23891 280.769L1.60493 280.848L0.436711 280.906C0.495289 282.096 0.558628 283.275 0.629588 284.432L1.7959 284.362L3.42321 284.265C3.46893 285.046 3.51703 285.823 3.56846 286.594L1.9521 286.703L0.788652 286.781C0.871517 287.973 0.962479 289.147 1.05963 290.304L2.22118 290.211L3.81849 290.084C3.87945 290.864 3.94326 291.638 4.01041 292.407L2.42787 292.548L1.26727 292.65C1.37967 293.842 1.50015 295.014 1.62683 296.166L2.78457 296.048L4.33616 295.888C4.41474 296.665 4.49713 297.439 4.58095 298.204L3.04936 298.378L1.89686 298.507C2.04212 299.697 2.19594 300.869 2.35882 302.015L3.51036 301.865L4.9948 301.672C5.09338 302.448 5.19577 303.216 5.30245 303.978L3.85897 304.183L2.71361 304.347C2.89982 305.533 3.09365 306.698 3.29939 307.836L4.43855 307.651L5.81679 307.427C5.93918 308.199 6.06634 308.963 6.19778 309.719L4.8786 309.953L3.74134 310.154C3.97565 311.334 4.21996 312.491 4.4757 313.616L5.60438 313.388L6.83213 313.141C6.9831 313.906 7.13978 314.664 7.30028 315.411L6.15206 315.664L5.02671 315.91C5.31959 317.079 5.62105 318.224 5.94013 319.331L7.05739 319.051L8.0794 318.795C8.26466 319.552 8.45658 320.299 8.65327 321.034L7.73365 321.285L6.62497 321.589C6.99024 322.74 7.36933 323.857 7.76508 324.936L8.86996 324.59L9.60718 324.359C9.83529 325.103 10.0691 325.834 10.3106 326.552L9.70814 326.758L8.61089 327.134C9.06474 328.254 9.54003 329.327 10.031 330.364L11.105 329.939L11.4798 329.79C11.7603 330.511 12.0508 331.223 12.3451 331.908L12.1374 331.998L11.0783 332.463C11.6379 333.524 12.2198 334.536 12.8227 335.501L13.7843 335.007C14.1286 335.692 14.4877 336.365 14.8506 337.009L14.1086 337.436C14.7872 338.399 15.4902 339.312 16.2188 340.167L16.6269 339.885C17.0537 340.513 17.4961 341.123 17.9418 341.696L17.7561 341.844C19.7701 343.903 21.9561 345.605 24.3301 346.939L24.4263 346.982C26.0708 347.545 29.9164 348.158 34.9022 348.693C34.7883 348.621 34.6702 348.547 34.5445 348.463C34.0887 348.147 33.5477 347.756 32.952 347.281C32.0838 346.591 31.098 345.719 30.0659 344.604C28.321 342.734 26.4741 340.199 24.7687 337.059C23.0628 333.919 21.4593 330.194 20.1473 325.992C18.8167 321.796 17.6751 317.157 16.7465 312.202C15.8235 307.246 15.0816 301.976 14.5444 296.506C13.4609 285.563 13.0328 273.835 12.9756 262.124C12.9656 250.396 13.6081 238.663 15.0468 227.756C15.7464 222.301 16.7308 217.067 17.879 212.158C19.0258 207.249 20.3988 202.673 21.9508 198.556C22.7104 196.491 23.5505 194.555 24.393 192.736C25.2712 190.935 26.147 189.246 27.0718 187.718C28.9001 184.649 30.8041 182.169 32.5591 180.311C34.3126 178.448 35.8984 177.205 37.0133 176.422C37.5662 176.022 38.0249 175.772 38.3173 175.577C38.452 175.492 38.5525 175.429 38.6278 175.381C38.7183 175.324 38.7687 175.293 38.7687 175.293C38.7687 175.293 38.7225 175.323 38.6383 175.38C38.5644 175.43 38.4621 175.499 38.3258 175.59C38.0396 175.794 37.5877 176.06 37.0481 176.475C35.958 177.285 34.4297 178.583 32.7248 180.467C31.0237 182.352 29.1911 184.856 27.4466 187.94C25.9427 190.574 24.523 193.639 23.2171 197.042L24.6944 197.614L23.9096 199.819L22.408 199.238C22.0194 200.334 21.6427 201.462 21.2803 202.619L22.8719 203.109L22.2394 205.365L20.604 204.861C20.2811 205.98 19.9697 207.124 19.672 208.291L21.3932 208.716L20.8755 211.001L19.1134 210.565C18.9753 211.156 18.8396 211.751 18.7081 212.352C18.5867 212.904 18.4767 213.473 18.36 214.033L20.194 214.395L19.783 216.701L17.8909 216.328C17.669 217.477 17.4561 218.639 17.2546 219.816L19.2448 220.128L18.9224 222.448L16.8836 222.129C16.7012 223.286 16.5274 224.454 16.3641 225.633L18.4857 225.893L18.2271 228.222L16.045 227.955C15.8973 229.117 15.7621 230.292 15.6326 231.473L17.8947 231.683L17.7018 234.019L15.3944 233.804C15.2787 234.972 15.1692 236.146 15.0706 237.329L17.458 237.493L17.3213 239.833L14.8849 239.665C14.7977 240.836 14.722 242.013 14.651 243.195L17.1413 243.313L17.0394 245.654L14.5186 245.535C14.4586 246.709 14.4005 247.885 14.3553 249.067L16.9208 249.141L16.8622 251.484L14.2834 251.41C14.2477 252.586 14.2186 253.763 14.1972 254.943L16.8032 254.975L16.7817 257.318L14.1605 257.286C14.1476 258.462 14.1462 259.639 14.1476 260.817L16.7751 260.815L16.7822 263.155L14.151 263.163C14.1538 264.34 14.1581 265.517 14.1696 266.691L16.7993 266.655L16.8236 268.998L14.2005 269.035C14.2167 270.214 14.2377 271.39 14.2634 272.565L16.8822 272.495L16.937 274.838L14.3167 274.908C14.3491 276.089 14.3891 277.265 14.431 278.44L17.0432 278.33L17.1322 280.672L14.5229 280.781C14.5725 281.963 14.6258 283.142 14.6867 284.314L17.2903 284.161L17.4056 286.501L14.8191 286.654C14.8891 287.839 14.9663 289.015 15.0492 290.185L17.6075 289.984L17.7666 292.323L15.2182 292.523C15.313 293.709 15.4149 294.885 15.5249 296.054L18.0409 295.797L18.2528 298.131L15.7616 298.385C15.885 299.571 16.0155 300.746 16.1517 301.912L18.611 301.594L18.8748 303.923L16.4703 304.233L16.1845 302.181C16.586 305.574 17.0422 308.879 17.587 312.048C18.4424 316.986 19.513 321.609 20.7759 325.792C22.0337 329.975 23.5372 333.698 25.1535 336.85C26.7723 340.001 28.5453 342.553 30.2345 344.448C31.2918 345.637 32.299 346.575 33.1739 347.307C33.6963 347.745 34.1707 348.109 34.5807 348.41C34.7326 348.518 34.8764 348.615 35.0112 348.704C35.6865 348.776 36.3818 348.847 37.0952 348.915L37.1005 348.908L37.1148 348.917C40.5866 349.252 44.4836 349.544 48.5155 349.759L48.1845 349.578L48.2297 349.501L48.6383 349.695C53.0512 349.93 57.6183 350 61.9526 350H61.9535C66.3811 350 70.3129 349.934 73.7238 349.666C73.4371 349.496 73.0604 349.309 72.6156 349.012C72.4427 348.892 72.2541 348.78 72.0593 348.639C70.9906 347.868 69.6086 346.775 68.137 345.185C66.3921 343.315 64.5447 340.786 62.8398 337.645C61.1339 334.506 59.5294 330.783 58.2174 326.581C56.8873 322.385 55.7457 317.748 54.8166 312.793C53.8936 307.835 53.1526 302.568 52.6145 297.097C51.531 286.155 51.1029 274.426 51.0462 262.715C51.0357 250.987 51.6782 239.255 53.1169 228.348C53.817 222.892 54.8009 217.659 55.9505 212.751C57.0959 207.84 58.4693 203.265 60.0224 199.148C60.7815 197.082 61.6216 195.147 62.4631 193.328C63.3422 191.526 64.2171 189.837 65.1429 188.31C66.5949 185.872 68.0932 183.813 69.5286 182.135L70.5544 180.856L70.6235 180.91C70.6254 180.908 70.6273 180.905 70.6296 180.903C71.5388 179.936 72.4008 179.14 73.1785 178.486L72.9804 178.271L74.7224 176.731L74.9644 176.991L74.5972 177.364C74.7672 177.24 74.931 177.121 75.0844 177.014C75.6368 176.615 76.0954 176.363 76.3883 176.168C76.6855 175.98 76.8393 175.884 76.8393 175.884C76.8393 175.884 76.6888 175.985 76.3969 176.182C76.1102 176.386 75.6582 176.652 75.1196 177.067C74.8134 177.294 74.4705 177.564 74.1019 177.869L73.3337 178.652L73.2713 178.586C72.5198 179.26 71.6864 180.074 70.8044 181.049L71.1387 181.307L69.7953 183.214L69.3052 182.837C68.6247 183.702 67.9346 184.66 67.246 185.705L67.9932 186.144L66.885 188.197L66.0096 187.685C65.8449 187.964 65.6806 188.242 65.5167 188.532C65.1048 189.253 64.7 190.009 64.3014 190.794L65.4024 191.305L64.489 193.454L63.2846 192.895C62.8017 193.937 62.3312 195.022 61.873 196.15L63.2527 196.67L62.4898 198.879L61.0253 198.329C60.8958 198.677 60.7643 199.024 60.6372 199.378C60.3662 200.128 60.1033 200.898 59.8447 201.677L61.4677 202.176L60.8372 204.429L59.1337 203.904C58.7941 205.015 58.467 206.153 58.1541 207.315L59.9805 207.778L59.4494 210.055L57.5669 209.578C57.2921 210.682 57.0282 211.803 56.7787 212.944C56.772 212.972 56.7673 213.001 56.7606 213.03L58.7394 213.442L58.3046 215.74L56.2872 215.319C56.0534 216.463 55.8319 217.624 55.6181 218.798L57.7255 219.157L57.3721 221.47L55.2119 221.102C55.0195 222.256 54.8318 223.419 54.6575 224.599L56.8882 224.905L56.5977 227.225L54.3384 226.916C54.268 227.439 54.1903 227.954 54.1227 228.482C54.0413 229.123 53.9708 229.777 53.8951 230.424L56.2167 230.675L55.9915 233.003L53.626 232.748C53.5017 233.913 53.3893 235.087 53.2817 236.268L55.7029 236.466L55.5371 238.799L53.0869 238.6C52.9921 239.77 52.9045 240.944 52.8254 242.125L55.3166 242.27L55.1914 244.607L52.6792 244.461C52.6116 245.633 52.5545 246.811 52.5021 247.992L55.0423 248.083L54.9661 250.421L52.4049 250.328C52.363 251.503 52.324 252.68 52.2968 253.859L54.889 253.901L54.859 256.24L52.2578 256.2C52.2392 257.375 52.2258 258.551 52.2211 259.729L54.8461 259.728L54.8528 262.065L52.2177 262.074C52.2182 262.285 52.2154 262.497 52.2163 262.708C52.2173 263.672 52.2244 264.634 52.2306 265.597L54.8699 265.56L54.8952 267.9L52.2487 267.937C52.2606 269.113 52.2744 270.29 52.2949 271.463L54.9537 271.391L55.0095 273.731L52.3487 273.804C52.3754 274.983 52.4078 276.158 52.4444 277.331L55.1171 277.219L55.2061 279.557L52.5221 279.67C52.5287 279.829 52.5321 279.99 52.5387 280.148C52.5787 281.171 52.6273 282.185 52.6759 283.2L55.3643 283.041L55.4786 285.378L52.793 285.537C52.8569 286.72 52.9273 287.896 53.0021 289.067L55.6819 288.856L55.8414 291.191L53.2002 291.4L53.015 289.253C53.184 291.87 53.3831 294.458 53.626 296.997C54.1565 302.445 54.8075 307.697 55.6572 312.639C56.513 317.578 57.5831 322.201 58.846 326.383C60.1043 330.567 61.6073 334.291 63.2236 337.442C64.8433 340.592 66.6164 343.144 68.3042 345.041C69.7686 346.685 71.1349 347.848 72.1869 348.653C72.3479 348.777 72.5041 348.894 72.6508 349.001C73.1013 349.322 73.479 349.552 73.7638 349.732C77.1579 349.463 80.0349 349.063 82.3675 348.53C89.3473 347.144 97.339 343.308 103.864 315.191C110.275 287.565 109.287 254.173 108.813 238.126L108.76 236.329C108.453 225.698 106.766 214.508 104.255 204.564C104.791 188.336 122.35 193.534 139.802 190.186C154.201 187.425 164.246 180.995 169.892 163.168C167.988 184.324 158.008 193.343 141.591 202.023C139.714 203.016 145.341 209.969 163.107 205.881C144.372 223.336 118.766 194.822 110.427 209.767C108.178 213.795 106.833 224.634 113.787 231.07C123.641 240.19 141.241 238.967 145.732 227.723C146.219 242.715 119.359 244.38 112.469 256.862C111.47 258.672 131.017 262.42 132.969 271.246C105.441 258.835 108.415 279.882 117.228 284.634C123.89 288.229 131.032 290.095 141.608 288.03C154.493 285.515 158.447 273.383 172.797 274.321C158.301 276.638 155.432 295.159 142.536 300.359C122.231 308.546 109.452 301.17 108.312 302.043C108.312 306.929 100.933 323.561 102.683 323.595C141.956 324.359 170.637 315.035 190.667 270.417C195.21 260.296 200.079 240.47 220.813 235.93C213.784 235.339 196.782 231.962 179.032 256.248C172.355 265.385 159.159 268.217 150.71 258.739C141.608 248.527 171.625 246.9 177.043 232.549C158.447 237.875 156.104 220.713 170.916 214.802C198.235 203.901 210.813 186.385 216.878 172.03C222.085 159.709 218.085 144.752 229.5 136.558C217.494 138.876 213.98 154.361 207.927 160.772C200.634 168.497 196.725 167.838 193.368 168.741C188.415 170.072 182.551 168.31 180.727 166.497C178.846 164.623 177.155 162.031 178.677 157.25C179.342 155.159 183.633 151.915 185.479 150.114C190.511 145.207 196.023 140.738 200.604 135.44C206.965 128.087 206.805 121.091 200.832 114.568C201.861 126.723 194.442 131.458 182.534 131.556C179.849 131.578 175.557 128.97 174.377 126.997C173.199 125.031 170.587 118.948 172.797 113.45C180.411 94.5121 199.153 97.7665 212.823 72.0782Z" fill="#0A84FF"/>
</svg>
