<svg width="99" height="99" viewBox="0 0 99 99" fill="none" xmlns="http://www.w3.org/2000/svg">
<rect width="99" height="99" rx="49.5" fill="white"/>
<path d="M28.8417 60.2835C28.478 60.6991 28.5201 61.3309 28.9358 61.6946C29.3514 62.0583 29.9832 62.0161 30.3469 61.6005L38.7602 51.9853C39.8596 52.742 41.82 54.9297 42.6369 59.831C42.7172 60.3132 43.1344 60.6666 43.6233 60.6666H55.1015C55.5848 60.6666 55.9989 60.321 56.0854 59.8455C56.4823 57.6627 57.7503 54.3335 60.2441 51.5682C61.1117 50.6062 62.1279 49.7114 63.3112 48.9553L69.5317 60.1523C69.7999 60.6351 70.4087 60.809 70.8915 60.5408C71.3743 60.2726 71.5482 59.6638 71.28 59.181L65.0681 47.9995C66.9217 47.1545 69.11 46.6377 71.6812 46.6377C72.2335 46.6377 72.6812 46.1899 72.6812 45.6377C72.6812 41.1411 69.9887 31.5257 59.1237 29.3527C58.7596 29.2799 58.3851 29.4149 58.1511 29.7032C57.9171 29.9916 57.8622 30.3859 58.0085 30.7272C58.4533 31.7651 58.9923 33.2381 59.4077 34.7819L54.304 32.0056C53.8189 31.7417 53.2116 31.921 52.9477 32.4062C52.6838 32.8913 52.8632 33.4986 53.3483 33.7625L59.9473 37.3522C60.0642 38.1883 60.1015 38.9533 60.038 39.5973C59.9972 40.0115 59.9186 40.3392 59.8156 40.5936C58.183 40.0364 55.8858 39.6368 53.4706 39.9595C50.8073 40.3153 47.9967 41.5539 45.8291 44.3993C43.8508 43.5665 40.9788 42.5181 37.9766 41.7366C34.6087 40.8599 30.9115 40.2732 28.1228 40.831C28.1073 40.8341 28.0918 40.8376 28.0764 40.8414C27.2002 41.0605 25.8267 41.4528 24.5331 41.9242C23.8865 42.1598 23.2437 42.421 22.6863 42.6968C22.1501 42.9622 21.6094 43.2808 21.235 43.6552C21.0475 43.8427 20.9421 44.0971 20.9421 44.3623V48.1884C20.9421 48.4963 21.084 48.7871 21.3267 48.9766C21.5694 49.1661 21.8859 49.2332 22.1847 49.1585C23.0171 48.9504 24.3993 48.6362 25.8215 48.3748C27.2629 48.1098 28.6728 47.913 29.5943 47.913C31.6203 47.913 33.7346 48.8337 37.0128 50.9451L28.8417 60.2835ZM64.0227 56.2408C64.3502 55.7961 64.2552 55.1701 63.8105 54.8426C63.3658 54.5151 62.7398 54.6101 62.4123 55.0548C61.1335 56.7912 60.4548 58.8967 60.479 61.0531C60.5031 63.2094 61.2287 65.2993 62.5461 67.0066C63.8634 68.7139 65.7009 69.9459 67.7806 70.5161C69.8603 71.0864 72.0691 70.964 74.0731 70.1674C76.077 69.3708 77.7671 67.9433 78.8877 66.1009C80.0084 64.2584 80.4986 62.1012 80.2843 59.9554C80.0699 57.8096 79.1627 55.7919 77.6999 54.2075C76.237 52.6231 74.298 51.5581 72.1761 51.1736C71.6326 51.0751 71.1123 51.4358 71.0138 51.9792C70.9153 52.5227 71.276 53.043 71.8194 53.1415C73.5139 53.4486 75.0622 54.299 76.2304 55.5642C77.3986 56.8294 78.123 58.4406 78.2942 60.1541C78.4653 61.8677 78.0738 63.5903 77.179 65.0616C76.2841 66.5328 74.9345 67.6727 73.3343 68.3088C71.7341 68.9449 69.9702 69.0427 68.3095 68.5873C66.6487 68.1319 65.1815 67.1482 64.1295 65.7848C63.0775 64.4214 62.4981 62.7526 62.4788 61.0307C62.4596 59.3088 63.0015 57.6274 64.0227 56.2408ZM30.8596 53.1161C31.4048 53.2042 31.9182 52.8337 32.0063 52.2885C32.0945 51.7433 31.724 51.2299 31.1788 51.1417C29.0499 50.7975 26.8668 51.1559 24.9597 52.1627C23.0526 53.1694 21.5252 54.7698 20.6085 56.7217C19.6917 58.6737 19.4355 60.8711 19.8785 62.9816C20.3216 65.0921 21.4398 67.001 23.0641 68.4195C24.6884 69.838 26.7305 70.689 28.8814 70.8439C31.0324 70.9988 33.1752 70.449 34.986 69.2778C36.7967 68.1066 38.1769 66.3776 38.9177 64.3523C39.6585 62.327 39.7197 60.1156 39.092 58.0524C38.9312 57.5241 38.3726 57.226 37.8442 57.3868C37.3158 57.5475 37.0178 58.1062 37.1786 58.6346C37.6798 60.2821 37.631 62.048 37.0394 63.6653C36.4478 65.2825 35.3457 66.6632 33.8998 67.5985C32.4538 68.5337 30.7426 68.9727 29.025 68.8491C27.3074 68.7254 25.6768 68.0458 24.3797 66.9131C23.0826 65.7803 22.1897 64.256 21.8359 62.5707C21.4821 60.8854 21.6867 59.1307 22.4187 57.5719C23.1508 56.0132 24.3705 54.7353 25.8934 53.9313C27.4163 53.1274 29.1596 52.8412 30.8596 53.1161Z" stroke="#025FBE" stroke-width="2" stroke-linecap="round" stroke-linejoin="round"/>
</svg>
