<svg width="24" height="24" viewBox="0 0 24 24" fill="none" xmlns="http://www.w3.org/2000/svg">
<path d="M5.25 5.25L6.1875 20.25C6.23203 21.1167 6.8625 21.75 7.6875 21.75H16.3125C17.1408 21.75 17.7595 21.1167 17.8125 20.25L18.75 5.25" stroke="#FF3B30" stroke-linecap="round" stroke-linejoin="round"/>
<path d="M3.75 5.25H20.25" stroke="#FF3B30" stroke-miterlimit="10" stroke-linecap="round"/>
<path d="M9 5.2499V3.3749C8.99957 3.22704 9.02838 3.08055 9.08476 2.94387C9.14114 2.80718 9.22399 2.68299 9.32854 2.57844C9.4331 2.47388 9.55729 2.39103 9.69398 2.33465C9.83066 2.27827 9.97715 2.24946 10.125 2.2499H13.875C14.0229 2.24946 14.1694 2.27827 14.306 2.33465C14.4427 2.39103 14.5669 2.47388 14.6715 2.57844C14.776 2.68299 14.8589 2.80718 14.9153 2.94387C14.9716 3.08055 15.0005 3.22704 15 3.3749V5.2499" stroke="#FF3B30" stroke-linecap="round" stroke-linejoin="round"/>
<path d="M12 8.25V18.75" stroke="#FF3B30" stroke-linecap="round" stroke-linejoin="round"/>
<path d="M8.625 8.25L9 18.75" stroke="#FF3B30" stroke-linecap="round" stroke-linejoin="round"/>
<path d="M15.375 8.25L15 18.75" stroke="#FF3B30" stroke-linecap="round" stroke-linejoin="round"/>
</svg>
